<svg width="65" height="60" viewBox="0 0 65 60" fill="none" xmlns="http://www.w3.org/2000/svg">
<path d="M39.4004 4.95215H25.8189C21.0255 4.95215 19.9603 7.18061 19.3478 9.92901L17.1641 19.635H48.0552L45.8715 9.92901C45.259 7.18061 44.1938 4.95215 39.4004 4.95215Z" stroke="#38B000" stroke-width="5.1875" stroke-linecap="round" stroke-linejoin="round"/>
<path d="M51.8934 35.4571C52.1065 37.5617 50.2956 39.3692 47.9788 39.3692H44.3571C42.2799 39.3692 41.987 38.5521 41.6141 37.5122L41.2147 36.4474C40.6821 34.9865 40.3359 33.9961 37.5397 33.9961H27.6598C24.8903 33.9961 24.4642 35.1103 23.9849 36.4474L23.5854 37.5122C23.2126 38.5274 22.9197 39.3692 20.8425 39.3692H17.2208C14.9039 39.3692 13.0931 37.5617 13.3061 35.4571L14.398 24.513C14.6643 21.8141 15.2235 19.6104 20.2832 19.6104H44.9163C49.976 19.6104 50.5353 21.8141 50.8016 24.513L51.8934 35.4571Z" stroke="#38B000" stroke-width="5.1875" stroke-linecap="round" stroke-linejoin="round"/>
<path d="M17.1706 14.2373H15.2266" stroke="#38B000" stroke-width="5.1875" stroke-linecap="round" stroke-linejoin="round"/>
<path d="M50.0065 14.2373H48.0625" stroke="#38B000" stroke-width="5.1875" stroke-linecap="round" stroke-linejoin="round"/>
<path d="M21.0312 26.8159H26.8101" stroke="#38B000" stroke-width="5.1875" stroke-linecap="round" stroke-linejoin="round"/>
<path d="M38.4219 26.8159H44.2007" stroke="#38B000" stroke-width="5.1875" stroke-linecap="round" stroke-linejoin="round"/>
<path d="M32.6094 42.0928V44.5688" stroke="#38B000" stroke-width="5.1875" stroke-linecap="round" stroke-linejoin="round"/>
<path d="M32.6094 51.9966V54.4726" stroke="#38B000" stroke-width="5.1875" stroke-linecap="round" stroke-linejoin="round"/>
<path d="M8.64741 44.5688L5.98438 54.473" stroke="#38B000" stroke-width="5.1875" stroke-linecap="round" stroke-linejoin="round"/>
<path d="M56.5781 44.5688L59.2412 54.473" stroke="#38B000" stroke-width="5.1875" stroke-linecap="round" stroke-linejoin="round"/>
</svg>
