<svg width="64" height="60" viewBox="0 0 64 60" fill="none" xmlns="http://www.w3.org/2000/svg">
<path d="M59.7164 36.0402C55.9367 36.2569 50.9676 39.7669 46.1771 41.785C40.3007 44.2584 31.158 42.2698 31.1562 42.2698C32.5659 41.6545 38.2996 40.3849 39.4552 39.914C45.5913 37.4027 45.069 32.1709 42.147 32.2136C38.2877 32.2738 36.019 33.1551 28.313 34.1319C22.473 34.8701 15.5671 34.6 12.2537 35.7762C7.57713 37.4373 0.046875 48.6114 0.046875 48.6114L11.6948 59.1049C11.6948 59.1049 18.9041 52.5028 22.4115 52.5028C30.4045 52.5028 30.7252 52.4025 38.1473 52.0281C41.3061 51.8709 41.9647 51.7504 43.7686 51.1846C53.3912 48.1599 63.7205 40.1054 63.9106 39.1359C64.3527 36.8918 61.7102 35.9245 59.7164 36.0402Z" fill="#38B000"/>
<path d="M36.4589 3.37842H27.445C24.2477 3.37842 23.5415 4.85881 23.1306 6.67349L21.6797 13.1323H42.2242L40.7732 6.67349C40.3623 4.85881 39.6561 3.37842 36.4589 3.37842Z" stroke="#38B000" stroke-width="2.84625" stroke-linecap="round" stroke-linejoin="round"/>
<path d="M44.7833 23.6622C44.9246 25.0591 43.7176 26.2649 42.1768 26.2649H39.7628C38.376 26.2649 38.1834 25.7157 37.9395 25.0352L37.6827 24.3189C37.3231 23.3399 37.092 22.6833 35.243 22.6833H28.6688C26.8198 22.6833 26.5501 23.4235 26.2291 24.3189L25.9723 25.0352C25.7283 25.7157 25.5357 26.2649 24.149 26.2649H21.735C20.1942 26.2649 18.9872 25.0591 19.1284 23.6622L19.8475 16.3916C20.0273 14.6008 20.3996 13.1323 23.7638 13.1323H40.148C43.5121 13.1323 43.8845 14.6008 44.0643 16.3916L44.7833 23.6622Z" stroke="#38B000" stroke-width="2.84625" stroke-linecap="round" stroke-linejoin="round"/>
<path d="M21.6825 9.55078H20.3984" stroke="#38B000" stroke-width="2.84625" stroke-linecap="round" stroke-linejoin="round"/>
<path d="M43.5106 9.55078H42.2266" stroke="#38B000" stroke-width="2.84625" stroke-linecap="round" stroke-linejoin="round"/>
<path d="M31.9531 3.58154V5.96928" stroke="#38B000" stroke-width="2.84625" stroke-linecap="round" stroke-linejoin="round"/>
<path d="M30.0312 5.96924H33.8833" stroke="#38B000" stroke-width="2.84625" stroke-linecap="round" stroke-linejoin="round"/>
<path d="M24.25 17.9082H28.1021" stroke="#38B000" stroke-width="2.84625" stroke-linecap="round" stroke-linejoin="round"/>
<path d="M35.8047 17.9082H39.6568" stroke="#38B000" stroke-width="2.84625" stroke-linecap="round" stroke-linejoin="round"/>
</svg>
