<svg width="396" height="240" viewBox="0 0 396 240" fill="none" xmlns="http://www.w3.org/2000/svg">
<path d="M334.662 40.7339C330.097 38.4196 328.02 40.3434 326.363 38.4196C324.704 36.4862 330.927 31.4673 318.482 26.4482C318.482 26.4482 317.653 15.6387 300.644 15.2482C283.634 14.8578 288.199 26.0577 283.634 28.7625C279.07 31.4673 277.821 27.2196 273.257 29.9244C268.692 32.6292 270.771 38.0291 267.035 38.8005C263.299 39.572 258.326 35.3244 253.761 38.0291C249.197 40.7339 249.197 43.0482 247.118 43.0482C245.041 43.0482 240.896 41.5053 238.41 43.0482C235.923 44.591 233.016 46.5244 233.016 46.5244H337.988C337.988 46.5244 339.237 43.0482 334.672 40.7339H334.662Z" fill="white"/>
<path opacity="0.5" d="M334.662 25.4956C330.097 23.1813 328.02 25.1052 326.363 23.1813C324.704 21.2481 330.927 16.229 318.482 11.2099C318.482 11.2099 317.653 0.400445 300.644 0.00996435C283.634 -0.380512 288.199 10.8195 283.634 13.5242C279.07 16.229 277.821 11.9814 273.257 14.6862C268.692 17.3909 270.771 22.7909 267.035 23.5623C263.299 24.3337 258.326 20.0862 253.761 22.7908C249.197 25.4956 249.197 27.8099 247.118 27.8099C245.041 27.8099 240.896 26.2671 238.41 27.8099C235.923 29.3528 233.016 31.2861 233.016 31.2861H337.988C337.988 31.2861 339.237 27.8099 334.672 25.4956H334.662Z" fill="url(#paint0_linear_621_193)"/>
<path d="M213.459 80.343C210.757 78.9716 209.529 80.1143 208.537 78.9716C207.553 77.8287 211.238 74.8477 203.86 71.8763C203.86 71.8763 203.368 65.4667 193.287 65.2382C183.207 65.0096 185.908 71.6477 183.207 73.2477C180.505 74.8477 179.768 72.3335 177.056 73.9335C174.354 75.5334 175.582 78.7429 173.371 79.2001C171.161 79.6572 168.204 77.1429 165.501 78.7429C162.8 80.343 162.8 81.7144 161.572 81.7144C160.344 81.7144 157.887 80.8001 156.404 81.7144C154.93 82.6286 153.211 83.7715 153.211 83.7715H215.423C215.423 83.7715 216.16 81.7144 213.459 80.343Z" fill="white"/>
<path opacity="0.5" d="M213.459 65.1052C210.757 63.7338 209.529 64.8765 208.537 63.7338C207.553 62.5909 211.238 59.6099 203.86 56.6385C203.86 56.6385 203.368 50.2289 193.287 50.0004C183.207 49.7718 185.908 56.4099 183.207 58.0099C180.505 59.6099 179.768 57.0957 177.056 58.6957C174.354 60.2957 175.582 63.5051 173.371 63.9623C171.161 64.4194 168.204 61.9051 165.501 63.5051C162.8 65.1052 162.8 66.4766 161.572 66.4766C160.344 66.4766 157.887 65.5623 156.404 66.4766C154.93 67.3908 153.211 68.5337 153.211 68.5337H215.423C215.423 68.5337 216.16 66.4766 213.459 65.1052Z" fill="url(#paint1_linear_621_193)"/>
<path d="M303.929 234.496H356.677C355.663 228.487 351.518 229.543 350.975 220.249C350.7 215.563 355.356 209.762 354.956 203.61C354.63 198.543 349.256 193.344 348.837 187.544C348.458 182.305 353.043 176.506 352.603 170.857C352.183 165.525 346.739 160.411 346.257 154.867C345.787 149.458 350.28 143.591 349.748 138.124C349.216 132.658 343.678 127.639 343.085 122.248C342.481 116.705 346.821 110.744 346.155 105.439C345.45 99.8102 339.748 94.953 338.971 89.7625C338.112 83.9912 342.154 77.8197 341.202 72.8388C340.046 66.734 333.935 62.315 332.647 57.8102C330.251 49.4198 330.549 41.3245 327.724 40.8006C324.704 40.2388 324.018 48.1721 321.726 57.0293C320.58 61.4768 314.604 65.9911 313.622 72.1054C312.823 77.0578 317.049 83.0673 316.353 88.8196C315.729 93.9721 310.172 98.9149 309.63 104.515C309.117 109.782 313.631 115.582 313.191 121.086C312.761 126.439 307.368 131.534 306.989 136.972C306.621 142.391 311.267 148.096 310.949 153.468C310.623 158.962 305.321 164.163 305.055 169.448C304.768 175.039 309.517 180.686 309.281 185.877C309.026 191.629 303.796 196.896 303.611 201.924C303.377 208.029 308.197 213.667 308.043 218.305C307.716 228.391 302.763 226.305 302.578 234.419L303.92 234.467L303.929 234.496Z" fill="#93FF89"/>
<path fill-rule="evenodd" clip-rule="evenodd" d="M326.055 232.239V56.9536H327.079V232.239H326.055Z" fill="black"/>
<path fill-rule="evenodd" clip-rule="evenodd" d="M326.301 81.5358L319.599 73.2202L318.781 73.7917L326.14 82.9237L335.142 75.6852L334.473 74.9647L326.301 81.5358Z" fill="black"/>
<path fill-rule="evenodd" clip-rule="evenodd" d="M326.301 112.041L319.599 103.734L318.781 104.306L326.14 113.428L335.142 106.2L334.473 105.479L326.301 112.041Z" fill="black"/>
<path fill-rule="evenodd" clip-rule="evenodd" d="M326.301 140.736L319.599 132.43L318.781 133.001L326.14 142.124L335.142 134.885L334.473 134.165L326.301 140.736Z" fill="black"/>
<path fill-rule="evenodd" clip-rule="evenodd" d="M326.301 174.878L319.599 166.572L318.781 167.145L326.14 176.267L335.142 169.029L334.473 168.307L326.301 174.878Z" fill="black"/>
<path fill-rule="evenodd" clip-rule="evenodd" d="M326.301 209.383L319.599 201.077L318.781 201.649L326.14 210.771L335.142 203.533L334.473 202.812L326.301 209.383Z" fill="black"/>
<path d="M248.44 234.497H294.177C293.297 229.288 289.704 230.202 289.234 222.145C288.999 218.078 293.031 213.059 292.684 207.717C292.396 203.316 287.74 198.811 287.372 193.783C287.044 189.24 291.025 184.211 290.637 179.317C290.268 174.687 285.55 170.259 285.131 165.45C284.72 160.764 288.62 155.668 288.16 150.935C287.699 146.192 282.899 141.84 282.388 137.164C281.866 132.363 285.632 127.192 285.059 122.593C284.445 117.716 279.501 113.497 278.826 109.002C278.079 103.992 281.579 98.6495 280.76 94.3257C279.757 89.0305 274.456 85.2019 273.34 81.2971C271.263 74.0209 271.519 67.0019 269.073 66.5448C266.453 66.059 265.859 72.9352 263.874 80.621C262.881 84.478 257.703 88.3924 256.843 93.6971C256.157 97.9829 259.81 103.202 259.218 108.192C258.685 112.659 253.855 116.945 253.384 121.802C252.943 126.363 256.853 131.402 256.475 136.173C256.096 140.811 251.418 145.24 251.101 149.944C250.774 154.65 254.817 159.593 254.54 164.249C254.253 169.02 249.659 173.516 249.423 178.106C249.177 182.954 253.292 187.85 253.088 192.354C252.862 197.344 248.338 201.915 248.164 206.268C247.959 211.564 252.136 216.45 252.012 220.478C251.736 229.231 247.427 227.411 247.273 234.449L248.43 234.487L248.44 234.497Z" fill="#93FF89"/>
<path fill-rule="evenodd" clip-rule="evenodd" d="M267.57 232.534V80.5342H268.593V232.534H267.57Z" fill="black"/>
<path fill-rule="evenodd" clip-rule="evenodd" d="M267.853 101.764L262.093 94.6113L261.273 95.1824L267.692 103.153L275.548 96.8284L274.878 96.1082L267.853 101.764Z" fill="black"/>
<path fill-rule="evenodd" clip-rule="evenodd" d="M267.853 128.221L262.093 121.068L261.273 121.639L267.692 129.61L275.548 123.286L274.878 122.564L267.853 128.221Z" fill="black"/>
<path fill-rule="evenodd" clip-rule="evenodd" d="M267.852 153.099L262.092 145.954L261.273 146.525L267.692 154.486L275.546 148.171L274.878 147.45L267.852 153.099Z" fill="black"/>
<path fill-rule="evenodd" clip-rule="evenodd" d="M267.853 182.708L262.093 175.555L261.273 176.126L267.692 184.095L275.548 177.782L274.878 177.06L267.853 182.708Z" fill="black"/>
<path fill-rule="evenodd" clip-rule="evenodd" d="M267.853 212.63L262.093 205.477L261.273 206.048L267.692 214.019L275.548 207.694L274.878 206.974L267.853 212.63Z" fill="black"/>
<path d="M87.4553 234.496H151.071C149.854 227.258 144.849 228.524 144.193 217.305C143.856 211.658 149.475 204.658 148.994 197.239C148.595 191.124 142.116 184.858 141.615 177.858C141.164 171.543 146.691 164.544 146.148 157.733C145.637 151.305 139.077 145.134 138.493 138.449C137.93 131.924 143.345 124.848 142.7 118.258C142.065 111.658 135.372 105.601 134.665 99.1054C133.939 92.4196 139.179 85.2291 138.371 78.8387C137.521 72.0482 130.633 66.1911 129.702 59.934C128.659 52.972 133.54 45.5339 132.393 39.5244C130.991 32.1626 123.633 26.8292 122.077 21.4007C119.191 11.2769 119.549 1.51495 116.142 0.886369C112.498 0.210186 111.669 9.77208 108.916 20.4673C107.535 25.8387 100.33 31.2768 99.1427 38.6483C98.1807 44.6197 103.277 51.8769 102.438 58.8101C101.691 65.0197 94.9876 70.9911 94.3327 77.7434C93.7186 84.0959 99.1632 91.0959 98.6311 97.734C98.1091 104.182 91.6001 110.343 91.1498 116.896C90.6996 123.439 96.3182 130.315 95.9293 136.79C95.5403 143.42 89.1439 149.686 88.8165 156.068C88.4685 162.819 94.1893 169.63 93.9131 175.886C93.6061 182.819 87.3018 189.181 87.0665 195.248C86.7901 202.61 92.5929 209.41 92.4189 215.01C92.03 227.182 86.043 224.657 85.8281 234.449L87.445 234.506L87.4553 234.496Z" fill="#93FF89"/>
<path fill-rule="evenodd" clip-rule="evenodd" d="M114.266 231.763V20.3535H115.289V231.763H114.266Z" fill="black"/>
<path fill-rule="evenodd" clip-rule="evenodd" d="M114.425 50.1462L106.28 40.04L105.461 40.6115L114.264 51.5338L125.035 42.8766L124.367 42.1558L114.425 50.1462Z" fill="black"/>
<path fill-rule="evenodd" clip-rule="evenodd" d="M114.425 86.945L106.28 76.8389L105.461 77.4103L114.264 88.3328L125.035 79.6754L124.367 78.9546L114.425 86.945Z" fill="black"/>
<path fill-rule="evenodd" clip-rule="evenodd" d="M114.425 121.555L106.28 111.449L105.461 112.021L114.264 122.943L125.035 114.286L124.367 113.565L114.425 121.555Z" fill="black"/>
<path fill-rule="evenodd" clip-rule="evenodd" d="M114.425 162.726L106.28 152.62L105.461 153.191L114.264 164.114L125.035 155.457L124.367 154.736L114.425 162.726Z" fill="black"/>
<path fill-rule="evenodd" clip-rule="evenodd" d="M114.425 204.346L106.28 194.24L105.461 194.811L114.264 205.734L125.035 197.076L124.367 196.355L114.425 204.346Z" fill="black"/>
<path fill-rule="evenodd" clip-rule="evenodd" d="M73.4688 168.134C74.034 168.134 74.4922 168.56 74.4922 169.086V220.676C74.4922 225.322 78.537 229.086 83.529 229.086H198.49C203.482 229.086 207.526 225.322 207.526 220.676V214.8C207.526 214.274 207.985 213.848 208.55 213.848C209.115 213.848 209.573 214.274 209.573 214.8V220.676C209.573 226.374 204.612 230.991 198.49 230.991H83.529C77.4066 230.991 72.4453 226.374 72.4453 220.676V169.086C72.4453 168.56 72.9036 168.134 73.4688 168.134Z" fill="black"/>
<path d="M77.0972 159.01H68.5312V164.887H77.0972V159.01Z" fill="black"/>
<path fill-rule="evenodd" clip-rule="evenodd" d="M68.0156 159.01C68.0156 158.748 68.2447 158.534 68.5274 158.534H77.0933C77.376 158.534 77.6051 158.748 77.6051 159.01V164.887C77.6051 165.149 77.376 165.363 77.0933 165.363H68.5274C68.2447 165.363 68.0156 165.149 68.0156 164.887V159.01ZM69.0391 159.486V164.41H76.5817V159.486H69.0391Z" fill="black"/>
<path d="M69.5975 130.829H27.4531V237.342H69.5975V130.829Z" fill="white"/>
<mask id="mask0_621_193" style="mask-type:luminance" maskUnits="userSpaceOnUse" x="27" y="130" width="43" height="108">
<path d="M69.5975 130.829H27.4531V237.342H69.5975V130.829Z" fill="white"/>
</mask>
<g mask="url(#mask0_621_193)">
<path d="M54.472 181.353H51.5041L53.6839 175.839H46.5814L43.5214 183.563H45.6604L41.9453 192.934L54.472 181.353Z" fill="#38B000"/>
</g>
<path fill-rule="evenodd" clip-rule="evenodd" d="M26.9453 130.354H70.113V237.82H26.9453V130.354ZM27.9687 131.305V236.867H69.0897V131.305H27.9687Z" fill="black"/>
<path d="M48.5254 162.315C60.1632 162.315 69.5975 148.896 69.5975 132.344C69.5975 115.791 60.1632 102.372 48.5254 102.372C36.8875 102.372 27.4531 115.791 27.4531 132.344C27.4531 148.896 36.8875 162.315 48.5254 162.315Z" fill="white"/>
<path fill-rule="evenodd" clip-rule="evenodd" d="M34.057 111.411C30.3057 116.747 27.9687 124.146 27.9687 132.343C27.9687 140.541 30.3057 147.94 34.057 153.275C37.8114 158.615 42.9391 161.839 48.5292 161.839C54.1192 161.839 59.2469 158.615 63.0013 153.275C66.7527 147.94 69.0897 140.541 69.0897 132.343C69.0897 124.146 66.7527 116.747 63.0013 111.411C59.2469 106.071 54.1192 102.848 48.5292 102.848C42.9391 102.848 37.8114 106.071 34.057 111.411ZM33.2007 110.889C37.0729 105.382 42.4815 101.896 48.5292 101.896C54.577 101.896 59.9854 105.382 63.8577 110.889C67.733 116.401 70.113 123.988 70.113 132.343C70.113 140.698 67.733 148.286 63.8577 153.797C59.9854 159.304 54.577 162.79 48.5292 162.79C42.4815 162.79 37.0729 159.304 33.2007 153.797C29.3255 148.286 26.9453 140.698 26.9453 132.343C26.9453 123.988 29.3255 116.401 33.2007 110.889Z" fill="black"/>
<path d="M53.4544 122.934H43.5989C42.7115 122.934 41.9922 123.603 41.9922 124.429V131.086C41.9922 131.911 42.7115 132.581 43.5989 132.581H53.4544C54.3419 132.581 55.0612 131.911 55.0612 131.086V124.429C55.0612 123.603 54.3419 122.934 53.4544 122.934Z" fill="#38B000"/>
<path fill-rule="evenodd" clip-rule="evenodd" d="M43.6028 123.41C42.9981 123.41 42.5078 123.866 42.5078 124.429V131.087C42.5078 131.649 42.9981 132.105 43.6028 132.105H53.4584C54.0632 132.105 54.5535 131.649 54.5535 131.087V124.429C54.5535 123.866 54.0632 123.41 53.4584 123.41H43.6028ZM41.4844 124.429C41.4844 123.34 42.4329 122.457 43.6028 122.457H53.4584C54.6284 122.457 55.5768 123.34 55.5768 124.429V131.087C55.5768 132.175 54.6284 133.057 53.4584 133.057H43.6028C42.4329 133.057 41.4844 132.175 41.4844 131.087V124.429Z" fill="black"/>
<path d="M55.7427 150.201C55.7427 146.496 52.519 143.487 48.5277 143.487C44.5364 143.487 41.3125 146.486 41.3125 150.201C41.3125 153.915 44.5364 156.916 48.5277 156.916C52.519 156.916 55.7427 153.915 55.7427 150.201Z" fill="black"/>
<path fill-rule="evenodd" clip-rule="evenodd" d="M40.8047 150.201C40.8047 146.223 44.2575 143.01 48.5315 143.01C52.806 143.01 56.2584 146.234 56.2584 150.201C56.2584 154.177 52.8054 157.391 48.5315 157.391C44.2575 157.391 40.8047 154.177 40.8047 150.201ZM48.5315 143.963C44.8228 143.963 41.8281 146.749 41.8281 150.201C41.8281 153.651 44.8228 156.438 48.5315 156.438C52.2401 156.438 55.2349 153.651 55.2349 150.201C55.2349 146.758 52.2398 143.963 48.5315 143.963Z" fill="black"/>
<path opacity="0.2" d="M52.1345 150.201C52.1345 148.345 50.5175 146.849 48.5321 146.849C46.5466 146.849 44.9297 148.353 44.9297 150.201C44.9297 152.049 46.5466 153.554 48.5321 153.554C50.5175 153.554 52.1345 152.049 52.1345 150.201Z" fill="white"/>
<path d="M50.7844 112.029C50.7844 110.867 49.7712 109.934 48.5328 109.934C47.2945 109.934 46.2812 110.876 46.2812 112.029C46.2812 113.181 47.2945 114.124 48.5328 114.124C49.7712 114.124 50.7844 113.181 50.7844 112.029Z" fill="black"/>
<path fill-rule="evenodd" clip-rule="evenodd" d="M45.7656 112.029C45.7656 110.614 47.0079 109.458 48.5288 109.458C50.0483 109.458 51.292 110.603 51.292 112.029C51.292 113.445 50.0498 114.601 48.5288 114.601C47.0079 114.601 45.7656 113.445 45.7656 112.029ZM48.5288 110.41C47.5731 110.41 46.7891 111.14 46.7891 112.029C46.7891 112.919 47.5731 113.648 48.5288 113.648C49.4846 113.648 50.2686 112.919 50.2686 112.029C50.2686 111.132 49.4861 110.41 48.5288 110.41Z" fill="black"/>
<path d="M75.3916 164.334H71.6562V170.21H75.3916V164.334Z" fill="black"/>
<path fill-rule="evenodd" clip-rule="evenodd" d="M71.1484 164.334C71.1484 164.071 71.3775 163.858 71.6602 163.858H75.3956C75.6783 163.858 75.9074 164.071 75.9074 164.334V170.21C75.9074 170.473 75.6783 170.687 75.3956 170.687H71.6602C71.3775 170.687 71.1484 170.473 71.1484 170.21V164.334ZM72.1719 164.81V169.734H74.8839V164.81H72.1719Z" fill="black"/>
<path d="M69.5975 217.725H27.4531V237.344H69.5975V217.725Z" fill="#38B000"/>
<path fill-rule="evenodd" clip-rule="evenodd" d="M26.9453 217.724C26.9453 217.461 27.1744 217.249 27.457 217.249H69.6014C69.8839 217.249 70.113 217.461 70.113 217.724V237.343C70.113 237.606 69.8839 237.819 69.6014 237.819H27.457C27.1744 237.819 26.9453 237.606 26.9453 237.343V217.724ZM27.9687 218.2V236.868H69.0897V218.2H27.9687Z" fill="black"/>
<path d="M395.271 230.724H0.507812V237.857H395.271V230.724Z" fill="white"/>
<path fill-rule="evenodd" clip-rule="evenodd" d="M0 230.725C0 230.462 0.229089 230.248 0.511704 230.248H395.276C395.558 230.248 395.787 230.462 395.787 230.725V237.857C395.787 238.121 395.558 238.335 395.276 238.335H0.511704C0.229089 238.335 0 238.121 0 237.857V230.725ZM1.02337 231.201V237.382H394.763V231.201H1.02337Z" fill="black"/>
<path fill-rule="evenodd" clip-rule="evenodd" d="M0 236.172C0 235.909 0.229089 235.696 0.511704 235.696H395.276C395.558 235.696 395.787 235.909 395.787 236.172V239.524C395.787 239.788 395.558 240 395.276 240H0.511704C0.229089 240 0 239.788 0 239.524V236.172ZM1.02337 236.648V239.048H394.763V236.648H1.02337Z" fill="black"/>
<path d="M146.53 156.287H145.978C143.614 156.287 141.944 154.135 142.672 152.039C143.367 150.039 144.545 148.03 146.53 147.715C150.624 147.077 161.881 150.258 161.881 152.477C161.881 154.696 161.881 155.649 160.52 155.649H151.995L145.169 162.63L145.026 162.515C143.501 161.353 143.542 159.239 145.026 158.03C145.588 157.572 146.121 156.991 146.54 156.277L146.53 156.287Z" fill="black"/>
<path fill-rule="evenodd" clip-rule="evenodd" d="M150.571 148.348C148.955 148.107 147.551 148.038 146.611 148.184C145.793 148.315 145.106 148.797 144.525 149.528C143.941 150.261 143.494 151.209 143.154 152.185C142.534 153.977 143.961 155.809 145.974 155.809H146.434C146.573 155.784 146.722 155.812 146.843 155.896C147.046 156.038 147.108 156.297 146.986 156.505C146.535 157.272 145.962 157.897 145.359 158.388C144.173 159.354 144.091 160.97 145.128 161.959L151.613 155.327C151.709 155.228 151.847 155.172 151.991 155.172H160.517C160.797 155.172 160.936 155.122 161.011 155.074C161.079 155.03 161.155 154.947 161.218 154.755C161.284 154.555 161.324 154.275 161.345 153.885C161.365 153.498 161.365 153.036 161.365 152.477C161.365 152.385 161.302 152.208 161.022 151.942C160.751 151.687 160.338 151.409 159.799 151.119C158.723 150.542 157.225 149.968 155.581 149.478C153.939 148.988 152.175 148.587 150.571 148.348ZM145.605 156.746C143.089 156.535 141.387 154.182 142.181 151.892C142.537 150.867 143.026 149.811 143.703 148.961C144.379 148.11 145.273 147.43 146.44 147.246L146.442 147.244C147.548 147.072 149.087 147.162 150.732 147.407C152.392 147.654 154.208 148.068 155.893 148.571C157.574 149.072 159.148 149.67 160.31 150.294C160.889 150.605 161.389 150.933 161.751 151.275C162.101 151.606 162.389 152.013 162.389 152.477V152.487C162.389 153.033 162.389 153.519 162.367 153.931C162.346 154.344 162.3 154.718 162.196 155.034C162.09 155.358 161.909 155.652 161.596 155.856C161.288 156.055 160.915 156.124 160.517 156.124H152.218L145.544 162.949C145.357 163.139 145.043 163.158 144.832 162.99L144.693 162.879C142.911 161.516 142.983 159.059 144.685 157.67C145.009 157.407 145.322 157.1 145.605 156.746Z" fill="black"/>
<path d="M223.617 215.334H336.88C336.88 215.334 353.255 205.172 349.847 178.505C346.439 151.839 328.017 169.621 321.19 187.391H270.706C270.706 187.391 259.786 167.078 242.05 169.611C224.313 172.154 223.628 215.325 223.628 215.325L223.617 215.334Z" fill="black"/>
<path fill-rule="evenodd" clip-rule="evenodd" d="M345.224 165.78C347.696 167.709 349.504 171.762 350.358 178.45C352.075 191.886 348.809 201.198 345.086 207.16C343.227 210.137 341.259 212.273 339.75 213.667C338.994 214.365 338.354 214.877 337.901 215.217C337.674 215.387 337.493 215.513 337.368 215.598C337.305 215.64 337.257 215.673 337.223 215.695L337.183 215.72L337.172 215.727L337.169 215.729C337.169 215.731 337.168 215.731 336.883 215.334L337.168 215.731C337.082 215.782 336.984 215.81 336.883 215.81H223.621C223.415 215.81 223.227 215.694 223.149 215.516C223.108 215.424 223.099 215.326 223.121 215.232L223.123 215.191C223.124 215.108 223.128 214.985 223.132 214.826C223.141 214.507 223.158 214.039 223.184 213.445C223.238 212.254 223.335 210.552 223.505 208.502C223.848 204.404 224.49 198.909 225.69 193.327C226.888 187.753 228.648 182.066 231.242 177.599C233.83 173.143 237.308 169.809 241.976 169.14C251.086 167.839 258.407 172.413 263.4 177.22C265.902 179.629 267.842 182.116 269.154 183.997C269.811 184.939 270.313 185.731 270.65 186.29C270.81 186.554 270.934 186.765 271.02 186.915H320.835C322.548 182.54 324.949 178.182 327.649 174.488C330.408 170.712 333.507 167.595 336.538 165.878C338.055 165.018 339.584 164.493 341.065 164.437C342.557 164.379 343.969 164.8 345.224 165.78ZM270.252 187.604L270.25 187.602L270.245 187.592L270.222 187.551C270.202 187.514 270.17 187.459 270.13 187.387C270.047 187.242 269.924 187.028 269.759 186.757C269.431 186.214 268.94 185.44 268.297 184.516C267.008 182.668 265.109 180.235 262.663 177.881C257.763 173.164 250.756 168.849 242.13 170.082C237.931 170.683 234.671 173.7 232.143 178.052C229.62 182.396 227.884 187.978 226.693 193.515C225.504 199.045 224.866 204.501 224.526 208.576C224.356 210.613 224.261 212.304 224.207 213.484C224.181 214.075 224.165 214.537 224.156 214.852C224.154 214.855 224.154 214.856 224.154 214.858H336.722C336.735 214.848 336.749 214.84 336.764 214.829C336.878 214.752 337.046 214.635 337.259 214.474C337.688 214.154 338.301 213.664 339.028 212.991C340.483 211.648 342.394 209.577 344.203 206.68C347.815 200.895 351.033 191.791 349.341 178.562C348.493 171.916 346.719 168.19 344.566 166.51C343.508 165.684 342.345 165.341 341.107 165.389C339.854 165.436 338.495 165.884 337.069 166.691C334.216 168.307 331.216 171.301 328.495 175.024C325.779 178.739 323.368 183.147 321.676 187.552C321.603 187.741 321.41 187.868 321.194 187.868H270.709C270.515 187.868 270.338 187.765 270.252 187.604Z" fill="black"/>
<path d="M251.451 210.058C251.451 202.229 249.035 195.173 245.188 190.201V182.772H231.535C220.534 182.772 211.609 194.992 211.609 210.058C211.609 225.124 220.534 237.344 231.535 237.344H245.188V229.915C249.046 224.934 251.451 217.887 251.451 210.058Z" fill="black"/>
<path fill-rule="evenodd" clip-rule="evenodd" d="M217.019 190.497C220.688 185.473 225.81 182.296 231.531 182.296H245.184C245.466 182.296 245.695 182.509 245.695 182.772V190.048C249.558 195.104 251.958 202.209 251.958 210.058C251.958 217.907 249.567 225.003 245.695 230.068V237.343C245.695 237.607 245.466 237.819 245.184 237.819H231.531C225.81 237.819 220.688 234.643 217.019 229.618C213.348 224.592 211.094 217.674 211.094 210.058C211.094 202.442 213.348 195.525 217.019 190.497ZM217.865 191.033C214.323 195.882 212.117 202.607 212.117 210.058C212.117 217.508 214.323 224.234 217.865 229.083C221.409 233.935 226.249 236.867 231.531 236.867H244.671V229.914C244.671 229.814 244.705 229.718 244.768 229.636C248.555 224.748 250.935 217.801 250.935 210.058C250.935 202.315 248.545 195.359 244.768 190.479C244.705 190.398 244.671 190.301 244.671 190.201V183.248H231.531C226.249 183.248 221.409 186.181 217.865 191.033Z" fill="black"/>
<path d="M245.184 237.344C256.189 237.344 265.111 225.128 265.111 210.058C265.111 194.988 256.189 182.772 245.184 182.772C234.18 182.772 225.258 194.988 225.258 210.058C225.258 225.128 234.18 237.344 245.184 237.344Z" fill="black"/>
<mask id="mask1_621_193" style="mask-type:luminance" maskUnits="userSpaceOnUse" x="225" y="182" width="41" height="56">
<path d="M245.184 237.344C256.189 237.344 265.111 225.128 265.111 210.058C265.111 194.988 256.189 182.772 245.184 182.772C234.18 182.772 225.258 194.988 225.258 210.058C225.258 225.128 234.18 237.344 245.184 237.344Z" fill="white"/>
</mask>
<g mask="url(#mask1_621_193)">
<path opacity="0.2" d="M245.184 237.344C256.189 237.344 265.111 225.128 265.111 210.058C265.111 194.988 256.189 182.772 245.184 182.772C234.18 182.772 225.258 194.988 225.258 210.058C225.258 225.128 234.18 237.344 245.184 237.344Z" fill="white"/>
</g>
<path fill-rule="evenodd" clip-rule="evenodd" d="M231.521 191.032C227.981 195.881 225.774 202.606 225.774 210.058C225.774 217.51 227.981 224.235 231.521 229.083C235.064 233.935 239.906 236.867 245.189 236.867C250.47 236.867 255.311 233.935 258.854 229.083C262.396 224.235 264.602 217.51 264.602 210.058C264.602 202.606 262.396 195.881 258.854 191.032C255.311 186.18 250.47 183.248 245.189 183.248C239.906 183.248 235.064 186.18 231.521 191.032ZM230.674 190.496C234.344 185.472 239.466 182.296 245.189 182.296C250.91 182.296 256.033 185.472 259.702 190.496C263.372 195.523 265.626 202.441 265.626 210.058C265.626 217.675 263.372 224.593 259.702 229.619C256.033 234.643 250.91 237.819 245.189 237.819C239.466 237.819 234.344 234.643 230.674 229.619C227.004 224.593 224.75 217.675 224.75 210.058C224.75 202.441 227.004 195.523 230.674 190.496Z" fill="black"/>
<path d="M128.369 182.763H115.464C105.066 182.763 96.6328 194.982 96.6328 210.048C96.6328 225.116 105.066 237.334 115.464 237.334H128.369C138.767 237.334 147.2 225.116 147.2 210.048C147.2 194.982 138.767 182.763 128.369 182.763Z" fill="black"/>
<path fill-rule="evenodd" clip-rule="evenodd" d="M101.722 190.498C105.187 185.477 110.035 182.286 115.468 182.286H128.373C133.805 182.286 138.653 185.477 142.119 190.498C145.587 195.523 147.715 202.437 147.715 210.048C147.715 217.658 145.587 224.572 142.119 229.598C138.653 234.618 133.805 237.811 128.373 237.811H115.468C110.035 237.811 105.187 234.618 101.722 229.598C98.254 224.572 96.125 217.658 96.125 210.048C96.125 202.437 98.254 195.523 101.722 190.498ZM102.583 191.013C99.236 195.864 97.1484 202.592 97.1484 210.048C97.1484 217.505 99.236 224.233 102.583 229.083C105.935 233.939 110.502 236.858 115.468 236.858H128.373C133.339 236.858 137.906 233.939 141.257 229.083C144.605 224.233 146.692 217.505 146.692 210.048C146.692 202.592 144.605 195.864 141.257 191.013C137.906 186.157 133.339 183.239 128.373 183.239H115.468C110.502 183.239 105.935 186.157 102.583 191.013Z" fill="black"/>
<path d="M245.183 231.829C253.962 231.829 261.077 222.082 261.077 210.058C261.077 198.033 253.962 188.286 245.183 188.286C236.405 188.286 229.289 198.033 229.289 210.058C229.289 222.082 236.405 231.829 245.183 231.829Z" fill="white"/>
<path fill-rule="evenodd" clip-rule="evenodd" d="M234.372 194.931C231.561 198.782 229.805 204.129 229.805 210.058C229.805 215.987 231.561 221.334 234.372 225.185C237.185 229.039 241.018 231.354 245.188 231.354C249.356 231.354 253.189 229.039 256.003 225.185C258.814 221.334 260.569 215.987 260.569 210.058C260.569 204.129 258.814 198.782 256.003 194.931C253.189 191.077 249.356 188.762 245.188 188.762C241.018 188.762 237.185 191.077 234.372 194.931ZM233.525 194.396C236.464 190.369 240.579 187.811 245.188 187.811C249.795 187.811 253.91 190.369 256.849 194.396C259.79 198.424 261.593 203.963 261.593 210.058C261.593 216.153 259.79 221.692 256.849 225.721C253.91 229.746 249.795 232.305 245.188 232.305C240.579 232.305 236.464 229.746 233.525 225.721C230.584 221.692 228.781 216.153 228.781 210.058C228.781 203.963 230.584 198.424 233.525 194.396Z" fill="black"/>
<path d="M344.75 210.058C344.75 202.229 343.216 195.173 340.759 190.201V182.772H328.703C321.704 182.772 316.023 194.992 316.023 210.058C316.023 225.124 321.704 237.344 328.703 237.344H340.759V229.915C343.216 224.934 344.75 217.887 344.75 210.058Z" fill="black"/>
<path fill-rule="evenodd" clip-rule="evenodd" d="M323.415 184.577C324.996 183.137 326.786 182.296 328.707 182.296H340.763C341.046 182.296 341.275 182.509 341.275 182.772V190.097C343.742 195.14 345.267 202.228 345.267 210.058C345.267 217.888 343.742 224.966 341.275 230.018V237.343C341.275 237.607 341.046 237.819 340.763 237.819H328.707C326.786 237.819 324.996 236.98 323.415 235.54C321.836 234.101 320.437 232.044 319.272 229.54C316.944 224.528 315.516 217.64 315.516 210.058C315.516 202.475 316.944 195.587 319.272 190.576C320.437 188.071 321.836 186.014 323.415 184.577ZM320.211 190.953C317.951 195.82 316.538 202.574 316.538 210.058C316.538 217.542 317.951 224.296 320.211 229.162C321.343 231.595 322.676 233.535 324.131 234.859C325.582 236.18 327.128 236.867 328.707 236.867H340.251V229.914C340.251 229.846 340.267 229.779 340.298 229.717C342.716 224.813 344.243 217.835 344.243 210.058C344.243 202.28 342.716 195.294 340.298 190.4C340.267 190.337 340.251 190.269 340.251 190.201V183.248H328.707C327.128 183.248 325.582 183.935 324.131 185.257C322.676 186.581 321.343 188.52 320.211 190.953Z" fill="black"/>
<path d="M340.758 237.344C347.761 237.344 353.438 225.128 353.438 210.058C353.438 194.988 347.761 182.772 340.758 182.772C333.755 182.772 328.078 194.988 328.078 210.058C328.078 225.128 333.755 237.344 340.758 237.344Z" fill="black"/>
<mask id="mask2_621_193" style="mask-type:luminance" maskUnits="userSpaceOnUse" x="328" y="182" width="26" height="56">
<path d="M340.759 237.345C347.761 237.345 353.439 225.128 353.439 210.059C353.439 194.989 347.761 182.773 340.759 182.773C333.756 182.773 328.078 194.989 328.078 210.059C328.078 225.128 333.756 237.345 340.759 237.345Z" fill="white"/>
</mask>
<g mask="url(#mask2_621_193)">
<path opacity="0.2" d="M340.759 237.345C347.761 237.345 353.439 225.128 353.439 210.059C353.439 194.989 347.761 182.773 340.759 182.773C333.756 182.773 328.078 194.989 328.078 210.059C328.078 225.128 333.756 237.345 340.759 237.345Z" fill="white"/>
</g>
<path fill-rule="evenodd" clip-rule="evenodd" d="M332.266 190.952C330.004 195.817 328.593 202.573 328.593 210.058C328.593 217.544 330.004 224.298 332.266 229.163C333.396 231.596 334.73 233.535 336.184 234.859C337.636 236.18 339.183 236.867 340.762 236.867C342.342 236.867 343.888 236.18 345.339 234.859C346.795 233.535 348.128 231.596 349.258 229.163C351.519 224.298 352.93 217.544 352.93 210.058C352.93 202.573 351.519 195.817 349.258 190.952C348.128 188.519 346.795 186.58 345.339 185.256C343.888 183.935 342.342 183.248 340.762 183.248C339.183 183.248 337.636 183.935 336.184 185.256C334.73 186.58 333.396 188.519 332.266 190.952ZM335.468 184.575C337.051 183.137 338.839 182.296 340.762 182.296C342.684 182.296 344.474 183.137 346.055 184.575C347.635 186.014 349.034 188.07 350.197 190.575C352.526 195.586 353.954 202.474 353.954 210.058C353.954 217.641 352.526 224.531 350.197 229.541C349.034 232.045 347.635 234.102 346.055 235.54C344.474 236.98 342.684 237.819 340.762 237.819C338.839 237.819 337.051 236.98 335.468 235.54C333.889 234.102 332.49 232.045 331.326 229.541C328.997 224.531 327.57 217.641 327.57 210.058C327.57 202.474 328.997 195.586 331.326 190.575C332.49 188.07 333.889 186.014 335.468 184.575Z" fill="black"/>
<path d="M340.761 231.829C346.344 231.829 350.872 222.082 350.872 210.058C350.872 198.033 346.344 188.286 340.761 188.286C335.176 188.286 330.648 198.033 330.648 210.058C330.648 222.082 335.176 231.829 340.761 231.829Z" fill="white"/>
<path fill-rule="evenodd" clip-rule="evenodd" d="M334.084 194.853C332.287 198.719 331.165 204.096 331.165 210.058C331.165 216.021 332.287 221.396 334.084 225.265C334.982 227.199 336.039 228.734 337.186 229.778C338.331 230.821 339.54 231.354 340.764 231.354C341.989 231.354 343.197 230.821 344.342 229.778C345.489 228.734 346.546 227.199 347.444 225.265C349.24 221.396 350.364 216.021 350.364 210.058C350.364 204.096 349.24 198.719 347.444 194.853C346.546 192.918 345.489 191.382 344.342 190.338C343.197 189.296 341.989 188.762 340.764 188.762C339.54 188.762 338.331 189.296 337.186 190.338C336.039 191.382 334.982 192.918 334.084 194.853ZM336.47 189.657C337.745 188.496 339.196 187.811 340.764 187.811C342.331 187.811 343.783 188.496 345.057 189.657C346.329 190.816 347.452 192.469 348.384 194.474C350.247 198.488 351.387 203.997 351.387 210.058C351.387 216.119 350.247 221.629 348.384 225.642C347.452 227.648 346.329 229.3 345.057 230.459C343.783 231.62 342.331 232.305 340.764 232.305C339.196 232.305 337.745 231.62 336.47 230.459C335.198 229.3 334.076 227.648 333.145 225.642C331.281 221.629 330.141 216.119 330.141 210.058C330.141 203.997 331.281 198.488 333.145 194.474C334.076 192.469 335.198 190.816 336.47 189.657Z" fill="black"/>
<path d="M228.388 216.724C228.388 194.982 236.504 177.353 246.523 177.353C256.542 177.353 264.658 194.982 264.658 216.724C264.658 217.915 264.627 219.096 264.587 220.268H329.184C329.154 219.096 329.133 217.925 329.133 216.724C329.133 194.982 335.048 177.353 342.345 177.353C347.217 177.353 351.474 185.23 353.767 196.934V164.82C353.767 161.801 351.453 159.211 348.261 158.658C348.158 158.638 348.056 158.62 347.943 158.601C343.472 157.762 335.406 149.849 322.869 139.848C310.332 129.848 299.137 129.02 299.137 129.02H186.028C183.889 129.02 181.812 129.677 180.123 130.896L141.541 158.601C141.541 158.601 107.072 164.848 99.4575 171.934C91.8433 179.02 92.7439 220.268 92.7439 220.268H228.48C228.429 219.096 228.408 217.925 228.408 216.724H228.388Z" fill="#38B000"/>
<mask id="mask3_621_193" style="mask-type:luminance" maskUnits="userSpaceOnUse" x="92" y="129" width="262" height="92">
<path d="M228.388 216.724C228.388 194.982 236.504 177.353 246.523 177.353C256.542 177.353 264.658 194.982 264.658 216.724C264.658 217.915 264.627 219.096 264.587 220.268H329.184C329.154 219.096 329.133 217.925 329.133 216.724C329.133 194.982 335.048 177.353 342.345 177.353C347.217 177.353 351.474 185.23 353.767 196.934V164.82C353.767 161.801 351.453 159.211 348.261 158.658C348.158 158.638 348.056 158.62 347.943 158.601C343.472 157.762 335.406 149.849 322.869 139.848C310.332 129.848 299.137 129.02 299.137 129.02H186.028C183.889 129.02 181.812 129.677 180.123 130.896L141.541 158.601C141.541 158.601 107.072 164.848 99.4575 171.934C91.8433 179.02 92.7439 220.268 92.7439 220.268H228.48C228.429 219.096 228.408 217.925 228.408 216.724H228.388Z" fill="white"/>
</mask>
<g mask="url(#mask3_621_193)">
<path opacity="0.3" d="M250.775 158.601L256.762 129.02H186.013C183.873 129.02 181.796 129.676 180.107 130.895L141.525 158.601C141.525 158.601 107.056 164.848 99.4419 171.934C91.8277 179.019 92.7283 220.266 92.7283 220.266H213.84C214.71 198.001 220.195 187.41 220.195 187.41H186.759C212.683 161.381 250.764 158.61 250.764 158.61L250.775 158.601Z" fill="#24272C"/>
</g>
<path fill-rule="evenodd" clip-rule="evenodd" d="M179.815 130.519C181.593 129.235 183.782 128.543 186.033 128.543H299.141C299.154 128.543 299.168 128.545 299.181 128.545L299.141 129.019C299.181 128.545 299.181 128.545 299.181 128.545H299.183L299.185 128.546H299.193L299.221 128.548C299.244 128.551 299.28 128.553 299.324 128.558C299.415 128.567 299.546 128.581 299.716 128.603C300.056 128.647 300.553 128.719 301.188 128.839C302.454 129.077 304.27 129.499 306.479 130.236C310.896 131.71 316.886 134.445 323.208 139.487C326.345 141.99 329.204 144.363 331.794 146.525C332.191 146.857 332.583 147.185 332.969 147.506C335.091 149.28 337.02 150.892 338.77 152.3C340.837 153.963 342.639 155.33 344.197 156.332C345.762 157.337 347.033 157.943 348.044 158.133C348.158 158.153 348.262 158.172 348.361 158.19C351.796 158.786 354.283 161.572 354.283 164.82V196.934C354.283 197.181 354.081 197.386 353.817 197.409C353.553 197.431 353.315 197.262 353.268 197.02C352.126 191.193 350.501 186.35 348.575 182.978C346.627 179.564 344.473 177.829 342.349 177.829C340.764 177.829 339.159 178.788 337.618 180.731C336.085 182.663 334.682 185.491 333.496 189.027C331.124 196.095 329.648 205.887 329.648 216.725C329.648 217.92 329.669 219.088 329.7 220.255C329.703 220.385 329.651 220.508 329.554 220.601C329.458 220.692 329.326 220.743 329.188 220.743H264.59C264.451 220.743 264.319 220.691 264.222 220.598C264.126 220.505 264.074 220.381 264.079 220.252C264.12 219.083 264.15 217.908 264.15 216.725C264.15 205.902 262.129 196.125 258.881 189.073C257.257 185.546 255.336 182.722 253.228 180.787C251.123 178.853 248.858 177.829 246.527 177.829C244.195 177.829 241.931 178.853 239.826 180.787C237.718 182.722 235.797 185.546 234.172 189.073C230.937 196.097 228.92 205.821 228.903 216.591C228.916 216.634 228.924 216.679 228.924 216.725C228.924 217.92 228.944 219.084 228.995 220.248C229 220.377 228.949 220.504 228.853 220.597C228.756 220.691 228.623 220.743 228.484 220.743H92.7478C92.4693 220.743 92.2419 220.536 92.2362 220.277L92.7478 220.267C92.2362 220.277 92.2362 220.277 92.2362 220.277L92.2356 220.247L92.2339 220.158C92.2323 220.078 92.2303 219.961 92.2279 219.81C92.2231 219.505 92.2172 219.057 92.2122 218.485C92.2025 217.341 92.197 215.7 92.2143 213.708C92.249 209.725 92.3744 204.339 92.7384 198.729C93.1023 193.122 93.7052 187.28 94.6973 182.388C95.1934 179.941 95.789 177.721 96.5058 175.883C97.219 174.053 98.069 172.556 99.0996 171.597C101.085 169.75 104.757 168.001 109.061 166.418C113.388 164.827 118.43 163.378 123.223 162.151C128.018 160.925 132.572 159.921 135.929 159.223C137.606 158.874 138.985 158.602 139.945 158.417C140.425 158.325 140.8 158.254 141.054 158.206C141.171 158.184 141.262 158.167 141.327 158.155L179.814 130.52C179.814 130.519 179.814 130.519 179.815 130.519ZM141.545 158.6C141.642 159.068 141.642 159.068 141.642 159.068L141.618 159.073L141.545 159.086C141.479 159.098 141.382 159.117 141.256 159.14C141.003 159.187 140.63 159.257 140.152 159.35C139.198 159.534 137.823 159.805 136.152 160.152C132.807 160.848 128.268 161.849 123.494 163.07C118.718 164.292 113.715 165.731 109.437 167.304C105.137 168.886 101.645 170.576 99.8233 172.271C98.9504 173.083 98.1629 174.426 97.4679 176.207C96.7766 177.981 96.1933 180.146 95.7031 182.563C94.7225 187.399 94.1229 193.197 93.76 198.786C93.3975 204.375 93.2723 209.743 93.2378 213.716C93.2205 215.701 93.226 217.338 93.2357 218.477C93.2405 219.045 93.2464 219.489 93.2511 219.792H227.953C227.917 218.82 227.902 217.849 227.9 216.858C227.887 216.817 227.881 216.772 227.881 216.725C227.881 205.804 229.917 195.894 233.232 188.698C234.889 185.1 236.874 182.158 239.108 180.108C241.341 178.057 243.849 176.877 246.527 176.877C249.204 176.877 251.713 178.057 253.947 180.108C256.179 182.158 258.165 185.1 259.821 188.698C263.136 195.894 265.174 205.804 265.174 216.725C265.174 217.755 265.15 218.778 265.118 219.792H328.665C328.641 218.779 328.626 217.762 328.626 216.725C328.626 205.819 330.109 195.926 332.519 188.744C333.722 185.155 335.167 182.217 336.795 180.164C338.415 178.122 340.287 176.877 342.349 176.877C345.098 176.877 347.509 179.08 349.48 182.53C350.946 185.099 352.227 188.456 353.259 192.39V164.82C353.259 162.03 351.122 159.636 348.171 159.126L348.165 159.125C348.062 159.106 347.964 159.087 347.856 159.069L347.846 159.068C346.623 158.838 345.209 158.14 343.616 157.115C342.011 156.084 340.175 154.689 338.101 153.02C336.344 151.607 334.406 149.988 332.284 148.215C331.899 147.893 331.508 147.566 331.11 147.234C328.522 145.073 325.67 142.707 322.541 140.21C316.325 135.252 310.448 132.573 306.134 131.133C303.975 130.413 302.208 130.002 300.984 129.772C300.373 129.658 299.897 129.588 299.577 129.546C299.416 129.526 299.295 129.514 299.215 129.505C299.175 129.501 299.145 129.499 299.126 129.496H299.118H186.033C184.006 129.496 182.039 130.119 180.441 131.272L180.439 131.273L141.857 158.977C141.794 159.023 141.721 159.054 141.642 159.068L141.545 158.6Z" fill="black"/>
<path d="M271.372 129.02H186.02C183.88 129.02 181.803 129.677 180.114 130.896L141.531 158.601H250.771L271.361 129.02H271.372Z" fill="#38B000"/>
<path fill-rule="evenodd" clip-rule="evenodd" d="M179.805 130.519C181.583 129.235 183.772 128.543 186.023 128.543H271.375C271.659 128.543 271.888 128.757 271.888 129.019C271.888 129.146 271.834 129.262 271.748 129.348L251.204 158.86C251.11 158.996 250.947 159.077 250.774 159.077H141.535C141.316 159.077 141.121 158.947 141.051 158.754C140.98 158.561 141.048 158.348 141.222 158.223L179.804 130.52L179.805 130.519ZM270.425 129.496H186.023C183.996 129.496 182.029 130.119 180.431 131.272V131.273L143.035 158.124H250.496L270.425 129.496Z" fill="black"/>
<path d="M226.672 169.743C220.531 169.809 209.775 170.191 205.117 171.933C198.404 174.429 193.922 176.934 193.922 176.934H215.864L226.672 169.743Z" fill="black"/>
<path fill-rule="evenodd" clip-rule="evenodd" d="M227.154 169.596C227.224 169.794 227.146 170.01 226.966 170.13L216.158 177.321C216.07 177.379 215.967 177.41 215.861 177.41H193.918C193.688 177.41 193.487 177.267 193.425 177.061C193.363 176.855 193.458 176.635 193.654 176.526L193.918 176.934C193.654 176.526 193.654 176.526 193.654 176.526L193.658 176.523L193.669 176.517L193.709 176.495C193.745 176.476 193.797 176.447 193.867 176.41C194.005 176.335 194.208 176.227 194.473 176.089C195.004 175.812 195.779 175.418 196.765 174.947C198.736 174.002 201.549 172.747 204.923 171.492C207.331 170.592 211.254 170.057 215.29 169.736C219.347 169.413 223.585 169.301 226.661 169.268C226.886 169.265 227.085 169.398 227.154 169.596ZM195.876 176.457H215.697L225.035 170.244C222.198 170.296 218.723 170.418 215.378 170.684C211.337 171.006 207.555 171.534 205.305 172.376H205.304C201.965 173.617 199.181 174.86 197.233 175.793C196.721 176.037 196.266 176.262 195.876 176.457Z" fill="black"/>
<path d="M217.205 183.182V179.43H193.922L198.139 183.049C198.067 183.087 198.005 183.134 197.954 183.172H217.205V183.182Z" fill="black"/>
<path fill-rule="evenodd" clip-rule="evenodd" d="M193.442 179.257C193.518 179.074 193.707 178.954 193.918 178.954H217.201C217.484 178.954 217.712 179.166 217.712 179.43V183.182C217.712 183.446 217.484 183.658 217.201 183.658C217.165 183.658 217.131 183.656 217.098 183.648H197.95C197.732 183.648 197.54 183.521 197.467 183.33C197.44 183.257 197.432 183.179 197.444 183.104L193.57 179.78C193.416 179.647 193.365 179.44 193.442 179.257ZM198.478 182.697H216.689V179.906H195.228L198.478 182.697Z" fill="black"/>
<path d="M219.44 177.763V183.21C220.894 183.048 222.726 182.457 223.913 180.677C226.154 177.343 231.189 169.734 231.189 169.734L219.43 177.753L219.44 177.763Z" fill="black"/>
<path fill-rule="evenodd" clip-rule="evenodd" d="M231.628 169.984L231.193 169.734C231.628 169.984 231.628 169.984 231.628 169.984L230.806 171.225C230.3 171.99 229.6 173.046 228.83 174.206C227.292 176.524 225.472 179.26 224.351 180.928C223.053 182.875 221.049 183.512 219.504 183.684C219.359 183.699 219.213 183.657 219.105 183.566C218.994 183.476 218.933 183.347 218.933 183.21V177.847C218.922 177.806 218.92 177.761 218.924 177.717C218.935 177.578 219.011 177.451 219.131 177.369L230.89 169.349C231.088 169.215 231.36 169.23 231.539 169.384C231.72 169.539 231.757 169.79 231.628 169.984ZM219.956 177.988V182.651C221.188 182.417 222.552 181.82 223.482 180.426L223.483 180.424C224.603 178.759 226.42 176.024 227.959 173.706C228.479 172.924 228.965 172.189 229.383 171.558L219.956 177.988Z" fill="black"/>
<path d="M101.617 183.058L105.834 179.438H95.8963C95.5892 180.61 95.3027 181.867 95.0469 183.191H101.801C101.801 183.191 101.689 183.105 101.617 183.067V183.058Z" fill="black"/>
<path fill-rule="evenodd" clip-rule="evenodd" d="M95.403 179.327C95.459 179.113 95.6644 178.963 95.9002 178.963H105.838C106.048 178.963 106.238 179.084 106.314 179.266C106.391 179.449 106.339 179.656 106.185 179.789L102.31 183.114C102.324 183.192 102.317 183.274 102.287 183.352C102.215 183.541 102.022 183.668 101.805 183.668H95.0508C94.8992 183.668 94.7554 183.605 94.6582 183.497C94.5611 183.389 94.5203 183.246 94.5472 183.107C94.8048 181.774 95.0934 180.508 95.403 179.327ZM101.266 182.715C101.269 182.713 101.271 182.71 101.274 182.708L104.528 179.916H96.3035C96.0774 180.804 95.8631 181.74 95.6654 182.715H101.266Z" fill="black"/>
<path d="M98.2937 173.371C97.6797 174.334 97.1373 175.533 96.6562 176.934H105.836C105.836 176.934 102.93 175.315 98.2937 173.371Z" fill="black"/>
<path fill-rule="evenodd" clip-rule="evenodd" d="M97.8498 173.128C97.9828 172.921 98.2626 172.838 98.4999 172.938C100.83 173.914 102.726 174.81 104.04 175.461C104.698 175.787 105.21 176.052 105.558 176.236C105.733 176.328 105.866 176.4 105.956 176.448C106.002 176.474 106.036 176.492 106.059 176.505L106.086 176.519L106.093 176.524H106.094C106.094 176.524 106.095 176.525 105.832 176.934L106.094 176.524C106.292 176.635 106.387 176.855 106.326 177.061C106.264 177.267 106.062 177.41 105.832 177.41H96.6524C96.489 177.41 96.3355 177.337 96.2391 177.215C96.1427 177.092 96.1152 176.934 96.165 176.789C96.6532 175.367 97.2097 174.131 97.8498 173.128ZM103.872 176.457C103.772 176.407 103.667 176.356 103.559 176.302C102.342 175.698 100.617 174.882 98.5043 173.985C98.094 174.69 97.714 175.517 97.3623 176.457H103.872Z" fill="black"/>
<path d="M250.784 158.6H317.039C317.039 158.6 326.445 155.687 323.753 144.848C322.843 141.172 304.052 132.763 301.371 132.763H269.134L250.773 158.592L250.784 158.6Z" fill="black"/>
<mask id="mask4_621_193" style="mask-type:luminance" maskUnits="userSpaceOnUse" x="250" y="132" width="75" height="27">
<path d="M250.784 158.6H317.04C317.04 158.6 326.446 155.687 323.754 144.848C322.843 141.172 304.054 132.763 301.372 132.763H269.134L250.773 158.592L250.784 158.6Z" fill="white"/>
</mask>
<g mask="url(#mask4_621_193)">
<path opacity="0.2" d="M250.784 158.6H317.04C317.04 158.6 326.446 155.687 323.754 144.848C322.843 141.172 304.054 132.763 301.372 132.763H269.134L250.773 158.592L250.784 158.6Z" fill="white"/>
</g>
<path d="M177.502 132.773L141.539 158.6H250.778L268.76 132.773H177.502Z" fill="black"/>
<path d="M107.516 177.763V186.516L114.229 191.097H168.399L180.936 186.096V177.763H107.516Z" fill="black"/>
<path fill-rule="evenodd" clip-rule="evenodd" d="M107 177.763C107 177.5 107.229 177.286 107.512 177.286H180.932C181.214 177.286 181.444 177.5 181.444 177.763V186.096C181.444 186.287 181.322 186.459 181.133 186.534L168.596 191.534C168.533 191.559 168.465 191.573 168.395 191.573H114.225C114.116 191.573 114.011 191.54 113.923 191.48L107.209 186.899C107.078 186.81 107 186.667 107 186.515V177.763ZM108.023 178.239V186.274L114.393 190.62H168.29L180.419 185.783V178.239H108.023Z" fill="black"/>
<path opacity="0.3" d="M110.023 177.763H107.516V180.096H110.023V177.763Z" fill="white"/>
<path opacity="0.3" d="M112.781 180.344H110.273V182.677H112.781V180.344Z" fill="white"/>
<path opacity="0.3" d="M115.554 182.915H113.047V185.248H115.554V182.915Z" fill="white"/>
<path opacity="0.3" d="M118.32 185.496H115.812V187.829H118.32V185.496Z" fill="white"/>
<path opacity="0.3" d="M180.445 177.763H177.938V180.096H180.445V177.763Z" fill="white"/>
<path opacity="0.3" d="M177.679 180.344H175.172V182.677H177.679V180.344Z" fill="white"/>
<path opacity="0.3" d="M174.906 182.915H172.398V185.248H174.906V182.915Z" fill="white"/>
<path opacity="0.3" d="M172.141 185.496H169.633V187.829H172.141V185.496Z" fill="white"/>
<path opacity="0.3" d="M122.171 185.496H119.664V187.829H122.171V185.496Z" fill="white"/>
<path opacity="0.3" d="M126.007 185.496H123.5V187.829H126.007V185.496Z" fill="white"/>
<path opacity="0.3" d="M129.852 185.496H127.344V187.829H129.852V185.496Z" fill="white"/>
<path opacity="0.3" d="M133.704 185.496H131.195V187.829H133.704V185.496Z" fill="white"/>
<path opacity="0.3" d="M137.538 185.496H135.031V187.829H137.538V185.496Z" fill="white"/>
<path opacity="0.3" d="M141.39 185.496H138.883V187.829H141.39V185.496Z" fill="white"/>
<path opacity="0.3" d="M145.226 185.496H142.719V187.829H145.226V185.496Z" fill="white"/>
<path opacity="0.3" d="M149.077 185.496H146.57V187.829H149.077V185.496Z" fill="white"/>
<path opacity="0.3" d="M152.921 185.496H150.414V187.829H152.921V185.496Z" fill="white"/>
<path opacity="0.3" d="M156.765 185.496H154.258V187.829H156.765V185.496Z" fill="white"/>
<path opacity="0.3" d="M160.609 185.496H158.102V187.829H160.609V185.496Z" fill="white"/>
<path opacity="0.3" d="M164.445 185.496H161.938V187.829H164.445V185.496Z" fill="white"/>
<path opacity="0.3" d="M168.296 185.496H165.789V187.829H168.296V185.496Z" fill="white"/>
<path d="M206.906 201.934H95.4247L93.9304 190.82C93.2448 196.925 92.9378 203.44 92.8047 208.782L93.1936 210.268L95.4349 206.106H104.994L99.0169 210.687H187.666L184.503 206.106H206.917L213.179 209.439H217.652V188.191L206.906 201.943V201.934Z" fill="black"/>
<path fill-rule="evenodd" clip-rule="evenodd" d="M217.814 187.739C218.024 187.802 218.167 187.985 218.167 188.191V209.439C218.167 209.702 217.937 209.915 217.656 209.915H213.183C213.094 209.915 213.006 209.893 212.928 209.853L206.784 206.581H185.443L188.1 210.429C188.201 210.575 188.209 210.762 188.118 210.915C188.029 211.068 187.856 211.163 187.67 211.163H99.0207C98.8048 211.163 98.612 211.037 98.5391 210.847C98.4661 210.658 98.5286 210.447 98.6954 210.319L103.571 206.581H95.7547L93.6549 210.481C93.5588 210.659 93.3531 210.763 93.1399 210.741C92.9265 210.718 92.7511 210.574 92.7002 210.38L92.3114 208.895C92.3008 208.854 92.296 208.812 92.297 208.771C92.4302 203.422 92.7377 196.893 93.4254 190.771C93.4524 190.529 93.6691 190.346 93.9291 190.344C94.1892 190.341 94.4098 190.521 94.4421 190.761L95.8802 201.458H206.657L217.241 187.912C217.372 187.745 217.603 187.675 217.814 187.739ZM206.808 202.411H95.4286C95.1705 202.411 94.9528 202.231 94.9207 201.993L94.0163 195.266C93.6255 199.962 93.4235 204.678 93.3218 208.73L93.3646 208.894L94.9813 205.892C95.0681 205.731 95.2451 205.63 95.4388 205.63H104.997C105.213 205.63 105.406 205.755 105.479 205.944C105.552 206.134 105.49 206.346 105.323 206.473L100.447 210.21H186.732L184.077 206.363C183.975 206.217 183.968 206.03 184.057 205.877C184.148 205.725 184.319 205.63 184.507 205.63H206.92C207.009 205.63 207.096 205.652 207.173 205.692L213.319 208.963H217.144V189.656L207.323 202.224C207.205 202.376 207.002 202.447 206.808 202.411Z" fill="black"/>
<path d="M274.109 156.287H273.557C271.182 156.287 269.523 154.135 270.251 152.039C270.946 150.039 272.123 148.03 274.109 147.715C278.202 147.077 289.46 150.258 289.46 152.477C289.46 154.696 289.46 155.649 288.099 155.649H279.574L272.748 162.63L272.605 162.515C271.08 161.353 271.12 159.239 272.605 158.03C273.167 157.572 273.7 156.991 274.119 156.277L274.109 156.287Z" fill="#38B000"/>
<path d="M294.462 158.6H298.198C297.799 153.496 296.233 142.23 290.082 132.773H286.336C288.496 137.124 293.623 148.353 294.462 158.6Z" fill="black"/>
<path d="M213.725 139.782L215.086 143.277C215.086 143.277 212.354 145.496 212.354 148.991V158.6H203.951L210.982 139.782H213.715H213.725ZM174.498 144.543C168.736 147.81 160.036 155.01 155.82 158.6H183.872L198.384 137.877L188.835 138.515C188.835 138.515 182.358 140.105 174.508 144.543H174.498ZM232.495 142L229.087 141.362H224.307L222.946 142.629C222.946 142.629 226.354 142.943 226.702 144.848C227.04 146.753 227.04 150.563 227.04 150.563H229.424C229.424 150.563 229.424 147.067 231.134 145.486C232.842 143.905 234.203 142.943 234.203 142.943L232.495 141.99V142Z" fill="white"/>
<path d="M272.601 162.525L272.745 162.639L279.571 155.658H288.096C289.222 155.658 289.416 154.991 289.446 153.516H270.125C270.36 155.038 271.752 156.297 273.553 156.297H274.106C273.676 157.01 273.144 157.581 272.591 158.049C271.118 159.258 271.076 161.381 272.591 162.534L272.601 162.525Z" fill="black"/>
<path fill-rule="evenodd" clip-rule="evenodd" d="M269.735 153.203C269.832 153.1 269.974 153.039 270.122 153.039H289.443C289.581 153.039 289.713 153.091 289.809 153.181C289.905 153.273 289.959 153.396 289.956 153.524C289.94 154.248 289.889 154.893 289.635 155.357C289.496 155.61 289.294 155.817 289.011 155.954C288.736 156.086 288.424 156.134 288.093 156.134H279.794L273.119 162.959C272.933 163.149 272.619 163.168 272.409 163.001L272.356 162.959C272.324 162.943 272.293 162.925 272.265 162.903C270.486 161.551 270.559 159.082 272.246 157.694C272.57 157.42 272.883 157.111 273.171 156.755C271.285 156.592 269.868 155.218 269.614 153.583C269.593 153.446 269.638 153.308 269.735 153.203ZM270.774 153.992C271.177 155.036 272.24 155.819 273.55 155.819H274.103C274.284 155.819 274.452 155.91 274.543 156.055C274.637 156.201 274.638 156.381 274.549 156.528C274.087 157.296 273.518 157.906 272.932 158.402L272.927 158.405C271.748 159.373 271.668 160.997 272.695 161.98L279.189 155.337C279.286 155.239 279.424 155.181 279.568 155.181H288.093C288.323 155.181 288.459 155.147 288.538 155.108C288.609 155.074 288.67 155.023 288.723 154.924C288.823 154.742 288.883 154.452 288.912 153.992H270.774Z" fill="black"/>
<path d="M293.653 166.267H285.977V167.801H293.653V166.267Z" fill="black"/>
<path d="M328.215 166.267H320.539V167.801H328.215V166.267Z" fill="black"/>
<path fill-rule="evenodd" clip-rule="evenodd" d="M328.341 159.877C328.5 159.659 328.818 159.603 329.052 159.75L328.765 160.144C329.052 159.75 329.052 159.75 329.052 159.75H329.053L329.056 159.752L329.061 159.755L329.077 159.766C329.091 159.775 329.109 159.788 329.133 159.804C329.18 159.837 329.248 159.885 329.332 159.949C329.503 160.079 329.744 160.274 330.042 160.545C330.636 161.086 331.453 161.932 332.368 163.166C334.198 165.632 336.417 169.642 338.043 175.85C338.077 175.983 338.05 176.122 337.966 176.234C337.883 176.346 337.753 176.419 337.608 176.436H337.609C337.609 176.436 337.609 176.436 337.608 176.436L337.589 176.438C337.571 176.442 337.541 176.447 337.498 176.455C337.414 176.471 337.283 176.502 337.111 176.552C336.77 176.653 336.269 176.836 335.659 177.166C334.445 177.821 332.788 179.062 331.114 181.396C327.764 186.072 324.343 195.153 324.343 212.716C324.343 212.978 324.115 213.192 323.832 213.192C323.55 213.192 323.32 212.978 323.32 212.716C323.32 195.059 326.756 185.763 330.263 180.868C332.019 178.417 333.791 177.073 335.147 176.341C335.823 175.976 336.394 175.765 336.801 175.644C336.845 175.632 336.885 175.619 336.925 175.61C335.339 169.771 333.235 166.01 331.525 163.706C330.648 162.524 329.874 161.725 329.326 161.224C329.05 160.974 328.833 160.798 328.687 160.689C328.614 160.633 328.559 160.593 328.523 160.569C328.505 160.557 328.492 160.548 328.485 160.543L328.477 160.539C328.244 160.391 328.182 160.094 328.341 159.877Z" fill="black"/>
<path d="M322.174 214.248H264.617C264.637 215.067 264.658 215.886 264.658 216.714C264.658 217.905 264.628 219.086 264.586 220.258H329.185C329.153 219.086 329.134 217.915 329.134 216.714C329.134 216.629 329.134 216.553 329.134 216.468L322.184 214.248H322.174Z" fill="black"/>
<path fill-rule="evenodd" clip-rule="evenodd" d="M264.254 213.915C264.351 213.824 264.482 213.772 264.62 213.772H322.188C322.244 213.772 322.301 213.781 322.354 213.798L329.303 216.018C329.51 216.084 329.649 216.264 329.649 216.468V216.714C329.649 217.909 329.669 219.078 329.7 220.246C329.703 220.375 329.65 220.498 329.555 220.591C329.458 220.683 329.326 220.734 329.187 220.734H264.59C264.451 220.734 264.318 220.681 264.223 220.589C264.126 220.496 264.074 220.372 264.078 220.242C264.119 219.073 264.149 217.898 264.149 216.716C264.149 215.893 264.129 215.079 264.108 214.259C264.106 214.131 264.158 214.008 264.254 213.915ZM265.144 214.724C265.16 215.383 265.173 216.046 265.173 216.716C265.173 217.746 265.151 218.768 265.118 219.782H328.664C328.641 218.8 328.626 217.814 328.625 216.807L322.103 214.724H265.144Z" fill="black"/>
<path d="M228.392 216.725C228.392 215.897 228.412 215.078 228.433 214.258H92.7167C92.6962 217.925 92.7372 220.267 92.7372 220.267H228.473C228.422 219.096 228.401 217.925 228.401 216.725H228.392Z" fill="black"/>
<path fill-rule="evenodd" clip-rule="evenodd" d="M92.201 214.255C92.2025 213.993 92.4312 213.782 92.7127 213.782H228.429C228.566 213.782 228.699 213.833 228.794 213.925C228.89 214.016 228.943 214.14 228.94 214.269C228.92 215.057 228.901 215.839 228.899 216.63C228.906 216.66 228.91 216.692 228.91 216.724C228.91 217.92 228.929 219.084 228.981 220.248C228.986 220.377 228.935 220.503 228.839 220.597C228.742 220.691 228.608 220.743 228.469 220.743H92.7333C92.4538 220.743 92.2261 220.535 92.2216 220.275L92.2198 220.166C92.2187 220.094 92.2173 219.988 92.2155 219.849C92.2119 219.572 92.2075 219.163 92.2037 218.641C92.1959 217.595 92.1908 216.09 92.201 214.255ZM93.2382 219.791H227.938C227.903 218.808 227.887 217.823 227.886 216.82C227.879 216.788 227.875 216.757 227.875 216.724C227.875 216.055 227.888 215.392 227.905 214.734H93.2221C93.2152 216.35 93.22 217.683 93.227 218.635C93.2306 219.126 93.2348 219.517 93.2382 219.791Z" fill="black"/>
<path d="M351.344 163.21C349.174 163.21 347.414 164.848 347.414 166.868C347.414 167.476 347.578 168.087 347.895 168.62L353.759 178.62V164.82C353.759 164.257 353.657 163.724 353.504 163.21H353.452H351.354H351.344Z" fill="black"/>
<path fill-rule="evenodd" clip-rule="evenodd" d="M346.898 166.867C346.898 164.585 348.888 162.734 351.34 162.734H353.499C353.729 162.734 353.931 162.877 353.992 163.083C354.155 163.626 354.266 164.204 354.266 164.82V178.619C354.266 178.838 354.108 179.027 353.882 179.081C353.655 179.134 353.418 179.039 353.307 178.848L347.444 168.85L347.443 168.849C347.082 168.244 346.898 167.554 346.898 166.867ZM351.34 163.686C349.453 163.686 347.921 165.111 347.921 166.867C347.921 167.399 348.064 167.929 348.338 168.389L348.341 168.391L353.244 176.752V164.82C353.244 164.433 353.19 164.058 353.101 163.686H351.34Z" fill="black"/>
<path fill-rule="evenodd" clip-rule="evenodd" d="M298.377 163.514C298.609 163.364 298.929 163.418 299.089 163.635L298.668 163.906C299.089 163.635 299.089 163.635 299.09 163.635V163.636L299.092 163.64L299.1 163.651C299.107 163.659 299.117 163.673 299.129 163.691C299.154 163.725 299.189 163.777 299.235 163.842C299.326 163.977 299.456 164.173 299.616 164.433C299.936 164.95 300.375 165.719 300.861 166.726C301.836 168.741 303 171.712 303.776 175.563C305.329 183.27 305.321 194.475 299.142 208.534C299.035 208.777 298.736 208.894 298.475 208.794C298.213 208.695 298.088 208.417 298.194 208.172C304.297 194.289 304.288 183.27 302.771 175.739C302.011 171.97 300.873 169.07 299.929 167.116C299.456 166.14 299.032 165.4 298.728 164.907C298.576 164.66 298.454 164.475 298.371 164.353C298.329 164.292 298.298 164.246 298.277 164.217L298.253 164.185L298.248 164.178V164.177C298.088 163.961 298.144 163.664 298.377 163.514Z" fill="black"/>
<defs>
<linearGradient id="paint0_linear_621_193" x1="233.016" y1="7.33269" x2="330.631" y2="41.7673" gradientUnits="userSpaceOnUse">
<stop stop-color="#FCEEEA"/>
<stop offset="1" stop-color="#E5F0FA"/>
</linearGradient>
<linearGradient id="paint1_linear_621_193" x1="153.211" y1="54.3398" x2="211.062" y2="74.7503" gradientUnits="userSpaceOnUse">
<stop stop-color="#FCEEEA"/>
<stop offset="1" stop-color="#E5F0FA"/>
</linearGradient>
</defs>
</svg>
