<svg width="66" height="65" viewBox="0 0 66 65" fill="none" xmlns="http://www.w3.org/2000/svg">
<path d="M40.7943 13.2418H25.9609M63.0443 17.6161V46.7781C63.0443 58.4428 59.3359 61.359 44.5026 61.359H22.2526C7.41927 61.359 3.71094 58.4428 3.71094 46.7781V17.6161C3.71094 5.95135 7.41927 3.03516 22.2526 3.03516H44.5026C59.3359 3.03516 63.0443 5.95135 63.0443 17.6161Z" stroke="#38B000" stroke-width="5.5625" stroke-linecap="round" stroke-linejoin="round"/>
<path d="M33.3807 52.902C34.9052 52.902 36.3672 52.4258 37.4451 51.5781C38.5231 50.7304 39.1286 49.5807 39.1286 48.3819C39.1286 47.1831 38.5231 46.0334 37.4451 45.1857C36.3672 44.338 34.9052 43.8618 33.3807 43.8618C31.8563 43.8618 30.3943 44.338 29.3163 45.1857C28.2384 46.0334 27.6328 47.1831 27.6328 48.3819C27.6328 49.5807 28.2384 50.7304 29.3163 51.5781C30.3943 52.4258 31.8563 52.902 33.3807 52.902Z" stroke="#38B000" stroke-width="5.5625" stroke-linecap="round" stroke-linejoin="round"/>
</svg>
