<svg width="89" height="71" viewBox="0 0 89 71" fill="none" xmlns="http://www.w3.org/2000/svg">
<path d="M35.2266 40.2166C35.2266 43.0453 38.0079 45.3199 41.4195 45.3199H48.3911C51.3578 45.3199 53.7682 43.3369 53.7682 40.8582C53.7682 38.2044 52.2849 37.2421 50.097 36.6297L38.9349 33.5677C36.747 32.9553 35.2637 32.0221 35.2637 29.3392C35.2637 26.8896 37.674 24.8774 40.6407 24.8774H47.6124C51.024 24.8774 53.8053 27.1521 53.8053 29.9808" stroke="#38B000" stroke-width="5.5625" stroke-linecap="round" stroke-linejoin="round"/>
<path d="M44.5 21.9905V48.2362" stroke="#38B000" stroke-width="5.5625" stroke-linecap="round" stroke-linejoin="round"/>
<path d="M81.5807 35.1136C81.5807 51.211 64.9674 64.2755 44.4974 64.2755C24.0274 64.2755 7.41406 51.211 7.41406 35.1136C7.41406 19.0162 24.0274 5.95166 44.4974 5.95166" stroke="#38B000" stroke-width="5.5625" stroke-linecap="round" stroke-linejoin="round"/>
<path d="M63.0391 8.86768V20.5325H77.8724" stroke="#38B000" stroke-width="5.5625" stroke-linecap="round" stroke-linejoin="round"/>
<path d="M81.5807 5.95166L63.0391 20.5326" stroke="#38B000" stroke-width="5.5625" stroke-linecap="round" stroke-linejoin="round"/>
</svg>
