<svg width="89" height="71" viewBox="0 0 89 71" fill="none" xmlns="http://www.w3.org/2000/svg">
<path d="M66.7528 21.0617C66.5303 21.0326 66.2707 21.0326 66.0482 21.0617C60.9307 20.9159 56.8516 17.6206 56.8516 13.5379C56.8516 9.36779 61.1161 6.01416 66.4191 6.01416C71.722 6.01416 75.9865 9.39695 75.9865 13.5379C75.9495 17.6206 71.8703 20.9159 66.7528 21.0617Z" stroke="#38B000" stroke-width="5.5625" stroke-linecap="round" stroke-linejoin="round"/>
<path d="M62.9316 42.2915C68.012 42.9622 73.6116 42.2623 77.5424 40.1918C82.7712 37.4506 82.7712 32.9597 77.5424 30.2184C73.5745 28.1479 67.9007 27.448 62.8203 28.1479" stroke="#38B000" stroke-width="5.5625" stroke-linecap="round" stroke-linejoin="round"/>
<path d="M22.14 21.0617C22.3625 21.0326 22.6221 21.0326 22.8446 21.0617C27.9621 20.9159 32.0413 17.6206 32.0413 13.5379C32.0413 9.36779 27.7767 6.01416 22.4738 6.01416C17.1708 6.01416 12.9062 9.39695 12.9062 13.5379C12.9433 17.6206 17.0225 20.9159 22.14 21.0617Z" stroke="#38B000" stroke-width="5.5625" stroke-linecap="round" stroke-linejoin="round"/>
<path d="M25.9621 42.2915C20.8817 42.9622 15.2821 42.2623 11.3512 40.1918C6.1225 37.4506 6.1225 32.9597 11.3512 30.2184C15.3192 28.1479 20.9929 27.448 26.0733 28.1479" stroke="#38B000" stroke-width="5.5625" stroke-linecap="round" stroke-linejoin="round"/>
<path d="M44.5028 42.8454C44.2803 42.8163 44.0207 42.8163 43.7982 42.8454C38.6807 42.6996 34.6016 39.4043 34.6016 35.3216C34.6016 31.1515 38.8661 27.7979 44.1691 27.7979C49.472 27.7979 53.7366 31.1806 53.7366 35.3216C53.6995 39.4043 49.6203 42.7288 44.5028 42.8454Z" stroke="#38B000" stroke-width="5.5625" stroke-linecap="round" stroke-linejoin="round"/>
<path d="M33.7106 52.0313C28.4819 54.7725 28.4819 59.2634 33.7106 62.0046C39.644 65.125 49.3598 65.125 55.2931 62.0046C60.5219 59.2634 60.5219 54.7725 55.2931 52.0313C49.3969 48.9401 39.644 48.9401 33.7106 52.0313Z" stroke="#38B000" stroke-width="5.5625" stroke-linecap="round" stroke-linejoin="round"/>
</svg>
