<svg width="85" height="85" viewBox="0 0 85 85" fill="none" xmlns="http://www.w3.org/2000/svg">
<path d="M27.9173 65.2V76H26.1623V71.1925H20.7398V76H18.9773V65.2H20.7398V69.925H26.1623V65.2H27.9173ZM31.7538 68.35V76H30.1413V68.35H31.7538ZM32.0238 66.04C32.0238 66.185 31.9938 66.3225 31.9338 66.4525C31.8788 66.5825 31.8013 66.6975 31.7013 66.7975C31.6013 66.8925 31.4838 66.97 31.3488 67.03C31.2188 67.085 31.0788 67.1125 30.9288 67.1125C30.7838 67.1125 30.6463 67.085 30.5163 67.03C30.3913 66.97 30.2813 66.8925 30.1863 66.7975C30.0913 66.6975 30.0138 66.5825 29.9538 66.4525C29.8988 66.3225 29.8713 66.185 29.8713 66.04C29.8713 65.89 29.8988 65.75 29.9538 65.62C30.0138 65.49 30.0913 65.3775 30.1863 65.2825C30.2813 65.1825 30.3913 65.105 30.5163 65.05C30.6463 64.99 30.7838 64.96 30.9288 64.96C31.0788 64.96 31.2188 64.99 31.3488 65.05C31.4838 65.105 31.6013 65.1825 31.7013 65.2825C31.8013 65.3775 31.8788 65.49 31.9338 65.62C31.9938 65.75 32.0238 65.89 32.0238 66.04ZM34.4999 75.9925C34.3549 75.9925 34.2224 75.9675 34.1024 75.9175C33.9824 75.8625 33.8774 75.79 33.7874 75.7C33.7024 75.605 33.6349 75.495 33.5849 75.37C33.5399 75.245 33.5174 75.1075 33.5174 74.9575C33.5174 74.8275 33.5399 74.705 33.5849 74.59C33.6349 74.475 33.7024 74.375 33.7874 74.29C33.8774 74.205 33.9824 74.14 34.1024 74.095C34.2274 74.045 34.3624 74.02 34.5074 74.02C34.6774 74.02 34.8274 74.0525 34.9574 74.1175C35.0874 74.1775 35.1949 74.2625 35.2799 74.3725C35.3699 74.4775 35.4349 74.6025 35.4749 74.7475C35.5199 74.8875 35.5424 75.0375 35.5424 75.1975C35.5424 75.4275 35.5074 75.67 35.4374 75.925C35.3724 76.18 35.2724 76.4325 35.1374 76.6825C35.0074 76.9375 34.8449 77.185 34.6499 77.425C34.4599 77.665 34.2424 77.885 33.9974 78.085L33.7199 77.83C33.6799 77.79 33.6499 77.7525 33.6299 77.7175C33.6149 77.6825 33.6074 77.6375 33.6074 77.5825C33.6074 77.4975 33.6499 77.4175 33.7349 77.3425C33.7849 77.2875 33.8499 77.215 33.9299 77.125C34.0099 77.035 34.0899 76.9325 34.1699 76.8175C34.2499 76.7025 34.3224 76.575 34.3874 76.435C34.4574 76.295 34.5074 76.1475 34.5374 75.9925H34.4999ZM44.4072 70.375C44.8072 70.375 45.1572 70.3275 45.4572 70.2325C45.7572 70.1325 46.0072 69.995 46.2072 69.82C46.4072 69.645 46.5572 69.4375 46.6572 69.1975C46.7572 68.9525 46.8072 68.6825 46.8072 68.3875C46.8072 67.7975 46.6122 67.3475 46.2222 67.0375C45.8322 66.7275 45.2422 66.5725 44.4522 66.5725H43.0272V70.375H44.4072ZM49.4922 76H47.9247C47.6147 76 47.3897 75.88 47.2497 75.64L44.7297 72.0025C44.6447 71.8775 44.5522 71.7875 44.4522 71.7325C44.3522 71.6775 44.2022 71.65 44.0022 71.65H43.0272V76H41.2722V65.2H44.4522C45.1622 65.2 45.7722 65.2725 46.2822 65.4175C46.7972 65.5625 47.2197 65.77 47.5497 66.04C47.8797 66.305 48.1222 66.625 48.2772 67C48.4372 67.375 48.5172 67.7925 48.5172 68.2525C48.5172 68.6275 48.4597 68.9775 48.3447 69.3025C48.2347 69.6275 48.0722 69.9225 47.8572 70.1875C47.6472 70.4525 47.3872 70.6825 47.0772 70.8775C46.7672 71.0725 46.4147 71.225 46.0197 71.335C46.2347 71.465 46.4197 71.6475 46.5747 71.8825L49.4922 76ZM54.464 72.655C53.889 72.675 53.404 72.7225 53.009 72.7975C52.614 72.8675 52.294 72.96 52.049 73.075C51.804 73.185 51.6265 73.3175 51.5165 73.4725C51.4115 73.6275 51.359 73.7975 51.359 73.9825C51.359 74.1625 51.3865 74.3175 51.4415 74.4475C51.5015 74.5725 51.5815 74.6775 51.6815 74.7625C51.7865 74.8425 51.9065 74.9025 52.0415 74.9425C52.1815 74.9775 52.334 74.995 52.499 74.995C52.919 74.995 53.279 74.9175 53.579 74.7625C53.884 74.6025 54.179 74.3725 54.464 74.0725V72.655ZM50.189 69.415C51.054 68.61 52.084 68.2075 53.279 68.2075C53.719 68.2075 54.109 68.28 54.449 68.425C54.794 68.565 55.0815 68.765 55.3115 69.025C55.5465 69.285 55.724 69.595 55.844 69.955C55.969 70.31 56.0315 70.705 56.0315 71.14V76H55.3115C55.1565 76 55.039 75.9775 54.959 75.9325C54.879 75.8825 54.8115 75.785 54.7565 75.64L54.599 75.0175C54.404 75.1925 54.2115 75.35 54.0215 75.49C53.8315 75.625 53.634 75.74 53.429 75.835C53.229 75.93 53.0115 76 52.7765 76.045C52.5465 76.095 52.2915 76.12 52.0115 76.12C51.7015 76.12 51.4115 76.0775 51.1415 75.9925C50.8765 75.9075 50.6465 75.78 50.4515 75.61C50.2565 75.435 50.1015 75.22 49.9865 74.965C49.8765 74.71 49.8215 74.41 49.8215 74.065C49.8215 73.77 49.899 73.4825 50.054 73.2025C50.214 72.9225 50.474 72.6725 50.834 72.4525C51.199 72.2275 51.6765 72.0425 52.2665 71.8975C52.8615 71.7525 53.594 71.67 54.464 71.65V71.14C54.464 70.59 54.3465 70.18 54.1115 69.91C53.8765 69.64 53.5315 69.505 53.0765 69.505C52.7665 69.505 52.5065 69.545 52.2965 69.625C52.0865 69.7 51.904 69.7825 51.749 69.8725C51.594 69.9625 51.4565 70.0475 51.3365 70.1275C51.2165 70.2025 51.089 70.24 50.954 70.24C50.844 70.24 50.749 70.2125 50.669 70.1575C50.594 70.0975 50.5315 70.025 50.4815 69.94L50.189 69.415ZM64.4797 68.35L61.4047 76H59.9497L56.8747 68.35H58.2022C58.3272 68.35 58.4297 68.3825 58.5097 68.4475C58.5947 68.5075 58.6497 68.58 58.6747 68.665L60.3697 73.12C60.4397 73.33 60.5022 73.5375 60.5572 73.7425C60.6122 73.9475 60.6597 74.155 60.6997 74.365C60.7397 74.155 60.7872 73.95 60.8422 73.75C60.9022 73.545 60.9672 73.335 61.0372 73.12L62.7622 68.665C62.7922 68.575 62.8472 68.5 62.9272 68.44C63.0072 68.38 63.1047 68.35 63.2197 68.35H64.4797ZM67.2616 68.35V76H65.6491V68.35H67.2616ZM67.5316 66.04C67.5316 66.185 67.5016 66.3225 67.4416 66.4525C67.3866 66.5825 67.3091 66.6975 67.2091 66.7975C67.1091 66.8925 66.9916 66.97 66.8566 67.03C66.7266 67.085 66.5866 67.1125 66.4366 67.1125C66.2916 67.1125 66.1541 67.085 66.0241 67.03C65.8991 66.97 65.7891 66.8925 65.6941 66.7975C65.5991 66.6975 65.5216 66.5825 65.4616 66.4525C65.4066 66.3225 65.3791 66.185 65.3791 66.04C65.3791 65.89 65.4066 65.75 65.4616 65.62C65.5216 65.49 65.5991 65.3775 65.6941 65.2825C65.7891 65.1825 65.8991 65.105 66.0241 65.05C66.1541 64.99 66.2916 64.96 66.4366 64.96C66.5866 64.96 66.7266 64.99 66.8566 65.05C66.9916 65.105 67.1091 65.1825 67.2091 65.2825C67.3091 65.3775 67.3866 65.49 67.4416 65.62C67.5016 65.75 67.5316 65.89 67.5316 66.04Z" fill="black"/>
<g filter="url(#filter0_d_621_518)">
<circle cx="42.4225" cy="38.4225" r="20.4225" fill="#38B000"/>
</g>
<path d="M42.6485 40.0977C42.5523 40.0856 42.4548 40.0856 42.3585 40.0977C41.3338 40.0632 40.3626 39.6317 39.6501 38.8944C38.9376 38.1571 38.5396 37.1718 38.5402 36.1464C38.5402 33.9594 40.3044 32.1831 42.5035 32.1831C43.542 32.1813 44.5396 32.5877 45.2813 33.3146C46.0229 34.0415 46.4492 35.0308 46.4682 36.0691C46.4873 37.1074 46.0975 38.1116 45.383 38.8652C44.6685 39.6188 43.6864 40.0615 42.6485 40.0977ZM50.6477 48.0727C48.4271 50.1137 45.5196 51.2439 42.5035 51.2385C39.3619 51.2385 36.5102 50.0423 34.3594 48.0727C34.4802 46.9369 35.2052 45.8252 36.4981 44.9552C39.809 42.756 45.2223 42.756 48.509 44.9552C49.8019 45.8252 50.5269 46.9369 50.6477 48.0727Z" stroke="black" stroke-width="1.5" stroke-linecap="round" stroke-linejoin="round"/>
<path d="M42.4974 51.2389C49.171 51.2389 54.5807 45.8292 54.5807 39.1556C54.5807 32.482 49.171 27.0723 42.4974 27.0723C35.8238 27.0723 30.4141 32.482 30.4141 39.1556C30.4141 45.8292 35.8238 51.2389 42.4974 51.2389Z" stroke="black" stroke-width="1.5" stroke-linecap="round" stroke-linejoin="round"/>
<defs>
<filter id="filter0_d_621_518" x="0" y="0" width="84.8438" height="84.8452" filterUnits="userSpaceOnUse" color-interpolation-filters="sRGB">
<feFlood flood-opacity="0" result="BackgroundImageFix"/>
<feColorMatrix in="SourceAlpha" type="matrix" values="0 0 0 0 0 0 0 0 0 0 0 0 0 0 0 0 0 0 127 0" result="hardAlpha"/>
<feOffset dy="4"/>
<feGaussianBlur stdDeviation="11"/>
<feComposite in2="hardAlpha" operator="out"/>
<feColorMatrix type="matrix" values="0 0 0 0 0 0 0 0 0 0 0 0 0 0 0 0 0 0 0.15 0"/>
<feBlend mode="normal" in2="BackgroundImageFix" result="effect1_dropShadow_621_518"/>
<feBlend mode="normal" in="SourceGraphic" in2="effect1_dropShadow_621_518" result="shape"/>
</filter>
</defs>
</svg>
