<svg width="108" height="61" viewBox="0 0 108 61" fill="none" xmlns="http://www.w3.org/2000/svg">
<path d="M15.3899 52.5375C15.3899 53.3375 15.2599 54.07 14.9999 54.735C14.7399 55.395 14.3724 55.9625 13.8974 56.4375C13.4274 56.9125 12.8599 57.2825 12.1949 57.5475C11.5349 57.8075 10.7999 57.9375 9.98994 57.9375H5.90994V47.1375H9.98994C10.7999 47.1375 11.5349 47.27 12.1949 47.535C12.8599 47.795 13.4274 48.1625 13.8974 48.6375C14.3724 49.1125 14.7399 49.6825 14.9999 50.3475C15.2599 51.0075 15.3899 51.7375 15.3899 52.5375ZM13.5974 52.5375C13.5974 51.9175 13.5124 51.36 13.3424 50.865C13.1774 50.37 12.9374 49.9525 12.6224 49.6125C12.3124 49.2725 11.9349 49.0125 11.4899 48.8325C11.0449 48.6475 10.5449 48.555 9.98994 48.555H7.67244V56.52H9.98994C10.5449 56.52 11.0449 56.43 11.4899 56.25C11.9349 56.07 12.3124 55.81 12.6224 55.47C12.9374 55.125 13.1774 54.7075 13.3424 54.2175C13.5124 53.7225 13.5974 53.1625 13.5974 52.5375ZM20.226 50.1675C20.791 50.1675 21.301 50.26 21.756 50.445C22.216 50.63 22.606 50.8925 22.926 51.2325C23.251 51.5725 23.501 51.985 23.676 52.47C23.851 52.955 23.9385 53.5 23.9385 54.105C23.9385 54.71 23.851 55.255 23.676 55.74C23.501 56.225 23.251 56.64 22.926 56.985C22.606 57.325 22.216 57.5875 21.756 57.7725C21.301 57.9575 20.791 58.05 20.226 58.05C19.656 58.05 19.141 57.9575 18.681 57.7725C18.226 57.5875 17.836 57.325 17.511 56.985C17.186 56.64 16.936 56.225 16.761 55.74C16.586 55.255 16.4985 54.71 16.4985 54.105C16.4985 53.5 16.586 52.955 16.761 52.47C16.936 51.985 17.186 51.5725 17.511 51.2325C17.836 50.8925 18.226 50.63 18.681 50.445C19.141 50.26 19.656 50.1675 20.226 50.1675ZM20.226 56.79C20.916 56.79 21.4285 56.56 21.7635 56.1C22.1035 55.635 22.2735 54.9725 22.2735 54.1125C22.2735 53.2525 22.1035 52.59 21.7635 52.125C21.4285 51.655 20.916 51.42 20.226 51.42C19.526 51.42 19.006 51.655 18.666 52.125C18.326 52.59 18.156 53.2525 18.156 54.1125C18.156 54.9725 18.326 55.635 18.666 56.1C19.006 56.56 19.526 56.79 20.226 56.79ZM36.1182 50.2875L33.6657 57.9375H32.3832C32.2332 57.9375 32.1282 57.84 32.0682 57.645L30.5457 52.8825C30.5057 52.7475 30.4682 52.6125 30.4332 52.4775C30.4032 52.3425 30.3757 52.21 30.3507 52.08C30.2957 52.35 30.2282 52.62 30.1482 52.89L28.6032 57.645C28.5482 57.84 28.4307 57.9375 28.2507 57.9375H27.0282L24.5757 50.2875H25.8507C25.9757 50.2875 26.0782 50.32 26.1582 50.385C26.2432 50.445 26.2982 50.5175 26.3232 50.6025L27.5982 55.0575C27.6482 55.2625 27.6907 55.4625 27.7257 55.6575C27.7657 55.8475 27.8007 56.0375 27.8307 56.2275C27.8807 56.0375 27.9332 55.8475 27.9882 55.6575C28.0432 55.4625 28.1007 55.2625 28.1607 55.0575L29.5932 50.58C29.6182 50.49 29.6682 50.4175 29.7432 50.3625C29.8232 50.3025 29.9182 50.2725 30.0282 50.2725H30.7332C30.8482 50.2725 30.9457 50.3025 31.0257 50.3625C31.1057 50.4175 31.1582 50.49 31.1832 50.58L32.5782 55.0575C32.6382 55.2625 32.6932 55.4625 32.7432 55.6575C32.7982 55.8525 32.8482 56.0475 32.8932 56.2425C32.9282 56.0525 32.9657 55.86 33.0057 55.665C33.0457 55.47 33.0932 55.2675 33.1482 55.0575L34.4457 50.6025C34.4757 50.5125 34.5307 50.4375 34.6107 50.3775C34.6907 50.3175 34.7882 50.2875 34.9032 50.2875H36.1182ZM38.802 51.3C38.967 51.13 39.137 50.9775 39.312 50.8425C39.492 50.7025 39.682 50.5825 39.882 50.4825C40.082 50.3825 40.2945 50.305 40.5195 50.25C40.7445 50.195 40.9895 50.1675 41.2545 50.1675C41.6745 50.1675 42.042 50.2375 42.357 50.3775C42.677 50.5175 42.9445 50.715 43.1595 50.97C43.3795 51.225 43.5445 51.5325 43.6545 51.8925C43.7645 52.2475 43.8195 52.64 43.8195 53.07V57.9375H42.2145V53.07C42.2145 52.555 42.0945 52.155 41.8545 51.87C41.6195 51.585 41.2595 51.4425 40.7745 51.4425C40.4145 51.4425 40.0795 51.525 39.7695 51.69C39.4645 51.855 39.177 52.08 38.907 52.365V57.9375H37.2945V50.2875H38.2695C38.4895 50.2875 38.6295 50.39 38.6895 50.595L38.802 51.3ZM47.3452 46.8375V57.9375H45.7327V46.8375H47.3452ZM52.643 50.1675C53.208 50.1675 53.718 50.26 54.173 50.445C54.633 50.63 55.023 50.8925 55.343 51.2325C55.668 51.5725 55.918 51.985 56.093 52.47C56.268 52.955 56.3555 53.5 56.3555 54.105C56.3555 54.71 56.268 55.255 56.093 55.74C55.918 56.225 55.668 56.64 55.343 56.985C55.023 57.325 54.633 57.5875 54.173 57.7725C53.718 57.9575 53.208 58.05 52.643 58.05C52.073 58.05 51.558 57.9575 51.098 57.7725C50.643 57.5875 50.253 57.325 49.928 56.985C49.603 56.64 49.353 56.225 49.178 55.74C49.003 55.255 48.9155 54.71 48.9155 54.105C48.9155 53.5 49.003 52.955 49.178 52.47C49.353 51.985 49.603 51.5725 49.928 51.2325C50.253 50.8925 50.643 50.63 51.098 50.445C51.558 50.26 52.073 50.1675 52.643 50.1675ZM52.643 56.79C53.333 56.79 53.8455 56.56 54.1805 56.1C54.5205 55.635 54.6905 54.9725 54.6905 54.1125C54.6905 53.2525 54.5205 52.59 54.1805 52.125C53.8455 51.655 53.333 51.42 52.643 51.42C51.943 51.42 51.423 51.655 51.083 52.125C50.743 52.59 50.573 53.2525 50.573 54.1125C50.573 54.9725 50.743 55.635 51.083 56.1C51.423 56.56 51.943 56.79 52.643 56.79ZM61.9924 54.5925C61.4174 54.6125 60.9324 54.66 60.5374 54.735C60.1424 54.805 59.8224 54.8975 59.5774 55.0125C59.3324 55.1225 59.1549 55.255 59.0449 55.41C58.9399 55.565 58.8874 55.735 58.8874 55.92C58.8874 56.1 58.9149 56.255 58.9699 56.385C59.0299 56.51 59.1099 56.615 59.2099 56.7C59.3149 56.78 59.4349 56.84 59.5699 56.88C59.7099 56.915 59.8624 56.9325 60.0274 56.9325C60.4474 56.9325 60.8074 56.855 61.1074 56.7C61.4124 56.54 61.7074 56.31 61.9924 56.01V54.5925ZM57.7174 51.3525C58.5824 50.5475 59.6124 50.145 60.8074 50.145C61.2474 50.145 61.6374 50.2175 61.9774 50.3625C62.3224 50.5025 62.6099 50.7025 62.8399 50.9625C63.0749 51.2225 63.2524 51.5325 63.3724 51.8925C63.4974 52.2475 63.5599 52.6425 63.5599 53.0775V57.9375H62.8399C62.6849 57.9375 62.5674 57.915 62.4874 57.87C62.4074 57.82 62.3399 57.7225 62.2849 57.5775L62.1274 56.955C61.9324 57.13 61.7399 57.2875 61.5499 57.4275C61.3599 57.5625 61.1624 57.6775 60.9574 57.7725C60.7574 57.8675 60.5399 57.9375 60.3049 57.9825C60.0749 58.0325 59.8199 58.0575 59.5399 58.0575C59.2299 58.0575 58.9399 58.015 58.6699 57.93C58.4049 57.845 58.1749 57.7175 57.9799 57.5475C57.7849 57.3725 57.6299 57.1575 57.5149 56.9025C57.4049 56.6475 57.3499 56.3475 57.3499 56.0025C57.3499 55.7075 57.4274 55.42 57.5824 55.14C57.7424 54.86 58.0024 54.61 58.3624 54.39C58.7274 54.165 59.2049 53.98 59.7949 53.835C60.3899 53.69 61.1224 53.6075 61.9924 53.5875V53.0775C61.9924 52.5275 61.8749 52.1175 61.6399 51.8475C61.4049 51.5775 61.0599 51.4425 60.6049 51.4425C60.2949 51.4425 60.0349 51.4825 59.8249 51.5625C59.6149 51.6375 59.4324 51.72 59.2774 51.81C59.1224 51.9 58.9849 51.985 58.8649 52.065C58.7449 52.14 58.6174 52.1775 58.4824 52.1775C58.3724 52.1775 58.2774 52.15 58.1974 52.095C58.1224 52.035 58.0599 51.9625 58.0099 51.8775L57.7174 51.3525ZM70.3313 52.17C70.1063 51.88 69.8588 51.6775 69.5888 51.5625C69.3188 51.4475 69.0263 51.39 68.7113 51.39C68.0813 51.39 67.5888 51.6225 67.2338 52.0875C66.8788 52.5475 66.7013 53.23 66.7013 54.135C66.7013 54.605 66.7413 55.0075 66.8213 55.3425C66.9013 55.6725 67.0163 55.9425 67.1663 56.1525C67.3163 56.3625 67.4988 56.515 67.7138 56.61C67.9288 56.705 68.1713 56.7525 68.4413 56.7525C68.8513 56.7525 69.2038 56.665 69.4988 56.49C69.7988 56.31 70.0763 56.0575 70.3313 55.7325V52.17ZM71.9438 46.8375V57.9375H70.9688C70.7538 57.9375 70.6163 57.835 70.5563 57.63L70.4138 56.7975C70.0938 57.1725 69.7288 57.475 69.3188 57.705C68.9138 57.935 68.4413 58.05 67.9013 58.05C67.4713 58.05 67.0813 57.965 66.7313 57.795C66.3813 57.62 66.0813 57.3675 65.8313 57.0375C65.5813 56.7075 65.3863 56.3 65.2463 55.815C65.1113 55.325 65.0438 54.765 65.0438 54.135C65.0438 53.565 65.1188 53.0375 65.2688 52.5525C65.4238 52.0675 65.6438 51.6475 65.9288 51.2925C66.2138 50.9325 66.5588 50.6525 66.9638 50.4525C67.3738 50.2475 67.8313 50.145 68.3363 50.145C68.7863 50.145 69.1688 50.2175 69.4838 50.3625C69.7988 50.5025 70.0813 50.7 70.3313 50.955V46.8375H71.9438ZM83.1679 53.8875L81.6829 49.9425C81.5629 49.6375 81.4404 49.25 81.3154 48.78C81.2604 49.015 81.2004 49.2325 81.1354 49.4325C81.0704 49.6275 81.0104 49.8 80.9554 49.95L79.4704 53.8875H83.1679ZM86.4904 57.9375H85.1329C84.9779 57.9375 84.8529 57.9 84.7579 57.825C84.6629 57.745 84.5904 57.6475 84.5404 57.5325L83.6404 55.1475H78.9904L78.0904 57.5325C78.0504 57.6325 77.9804 57.725 77.8804 57.81C77.7804 57.895 77.6554 57.9375 77.5054 57.9375H76.1479L80.4304 47.1375H82.2079L86.4904 57.9375ZM89.034 56.0175C89.259 56.3075 89.504 56.5125 89.769 56.6325C90.039 56.7475 90.3365 56.805 90.6615 56.805C91.2915 56.805 91.7815 56.575 92.1315 56.115C92.4865 55.655 92.664 54.97 92.664 54.06C92.664 53.59 92.624 53.19 92.544 52.86C92.464 52.525 92.349 52.2525 92.199 52.0425C92.049 51.8325 91.8665 51.68 91.6515 51.585C91.4365 51.49 91.194 51.4425 90.924 51.4425C90.514 51.4425 90.159 51.5325 89.859 51.7125C89.564 51.8875 89.289 52.14 89.034 52.47V56.0175ZM88.9515 51.3975C89.2715 51.0225 89.634 50.72 90.039 50.49C90.449 50.26 90.924 50.145 91.464 50.145C91.894 50.145 92.284 50.2325 92.634 50.4075C92.984 50.5775 93.284 50.8275 93.534 51.1575C93.784 51.4875 93.9765 51.8975 94.1115 52.3875C94.2515 52.8725 94.3215 53.43 94.3215 54.06C94.3215 54.625 94.244 55.1525 94.089 55.6425C93.939 56.1275 93.7215 56.55 93.4365 56.91C93.1515 57.265 92.8065 57.545 92.4015 57.75C91.9965 57.95 91.539 58.05 91.029 58.05C90.579 58.05 90.1965 57.9775 89.8815 57.8325C89.5715 57.6875 89.289 57.4875 89.034 57.2325V60.48H87.4215V50.2875H88.3965C88.6165 50.2875 88.7565 50.39 88.8165 50.595L88.9515 51.3975ZM97.5008 56.0175C97.7258 56.3075 97.9708 56.5125 98.2358 56.6325C98.5058 56.7475 98.8033 56.805 99.1283 56.805C99.7583 56.805 100.248 56.575 100.598 56.115C100.953 55.655 101.131 54.97 101.131 54.06C101.131 53.59 101.091 53.19 101.011 52.86C100.931 52.525 100.816 52.2525 100.666 52.0425C100.516 51.8325 100.333 51.68 100.118 51.585C99.9033 51.49 99.6608 51.4425 99.3908 51.4425C98.9808 51.4425 98.6258 51.5325 98.3258 51.7125C98.0308 51.8875 97.7558 52.14 97.5008 52.47V56.0175ZM97.4183 51.3975C97.7383 51.0225 98.1008 50.72 98.5058 50.49C98.9158 50.26 99.3908 50.145 99.9308 50.145C100.361 50.145 100.751 50.2325 101.101 50.4075C101.451 50.5775 101.751 50.8275 102.001 51.1575C102.251 51.4875 102.443 51.8975 102.578 52.3875C102.718 52.8725 102.788 53.43 102.788 54.06C102.788 54.625 102.711 55.1525 102.556 55.6425C102.406 56.1275 102.188 56.55 101.903 56.91C101.618 57.265 101.273 57.545 100.868 57.75C100.463 57.95 100.006 58.05 99.4958 58.05C99.0458 58.05 98.6633 57.9775 98.3483 57.8325C98.0383 57.6875 97.7558 57.4875 97.5008 57.2325V60.48H95.8883V50.2875H96.8633C97.0833 50.2875 97.2233 50.39 97.2833 50.595L97.4183 51.3975Z" fill="black"/>
<ellipse cx="55.1427" cy="22.01" rx="22.0099" ry="22.01" fill="#E6F5E0"/>
<rect x="45.4531" y="4.40186" width="20.1234" height="35.216" fill="black"/>
<rect x="47.2109" y="5.28223" width="16.7275" height="30.814" fill="white"/>
<ellipse cx="56.0186" cy="37.857" rx="1.76079" ry="1.7608" fill="white"/>
<path d="M54.4335 32.4013C54.824 32.7918 55.4572 32.7918 55.8477 32.4013L62.2117 26.0373C62.6022 25.6468 62.6022 25.0136 62.2117 24.6231C61.8212 24.2326 61.188 24.2326 60.7975 24.6231L55.1406 30.28L49.4838 24.6231C49.0932 24.2326 48.4601 24.2326 48.0696 24.6231C47.679 25.0136 47.679 25.6468 48.0696 26.0373L54.4335 32.4013ZM54.1406 7.04297V31.6942H56.1406V7.04297H54.1406Z" fill="black"/>
</svg>
