<svg width="346" height="75" viewBox="0 0 346 75" fill="none" xmlns="http://www.w3.org/2000/svg">
<g filter="url(#filter0_d_621_439)">
<path d="M26.3592 16H106.346L92.401 41.1297L85.3729 53.1857H18.104C4.18165 51.5574 3.15532 43.948 4.38245 40.3469L13.8648 23.2023C16.0959 18.6304 22.6778 16 26.3592 16Z" fill="#38B000"/>
</g>
<rect x="141" y="16" width="205" height="40" rx="20" fill="#38B000"/>
<g filter="url(#filter1_d_621_439)">
<path d="M156.213 16H113.486L92.625 53.3423H146.73C154.138 53.3423 158.444 49.5324 159.671 47.6274L169.711 29.3086C171.853 20.0395 161.604 16.5741 156.213 16Z" fill="white"/>
</g>
<g filter="url(#filter2_d_621_439)">
<mask id="path-4-inside-1_621_439" fill="white">
<ellipse cx="100.495" cy="34.7102" rx="11.7135" ry="8.22"/>
</mask>
<ellipse cx="100.495" cy="34.7102" rx="11.7135" ry="8.22" fill="#38B000"/>
<path d="M101.208 34.7102C101.208 33.6577 101.527 32.7951 101.867 32.2315C102.027 31.9653 102.179 31.785 102.283 31.6771C102.387 31.5694 102.453 31.5226 102.459 31.5185C102.461 31.5171 102.296 31.6287 101.924 31.739C101.562 31.8465 101.077 31.9302 100.495 31.9302V53.9302C105.715 53.9302 110.912 52.4629 115.096 49.5268C119.247 46.6138 123.208 41.5423 123.208 34.7102H101.208ZM100.495 31.9302C99.9128 31.9302 99.4275 31.8465 99.0653 31.739C98.6937 31.6287 98.5287 31.5171 98.5307 31.5185C98.5365 31.5226 98.6026 31.5694 98.7063 31.6771C98.8101 31.785 98.9624 31.9653 99.1228 32.2315C99.4625 32.7951 99.7812 33.6577 99.7812 34.7102H77.7812C77.7812 41.5423 81.7423 46.6138 85.8934 49.5268C90.0773 52.4629 95.2741 53.9302 100.495 53.9302V31.9302ZM99.7812 34.7102C99.7812 35.7627 99.4625 36.6254 99.1228 37.189C98.9624 37.4552 98.8101 37.6355 98.7063 37.7434C98.6026 37.851 98.5365 37.8979 98.5307 37.9019C98.5287 37.9034 98.6937 37.7918 99.0653 37.6815C99.4275 37.574 99.9128 37.4902 100.495 37.4902V15.4902C95.2741 15.4902 90.0773 16.9576 85.8934 19.8937C81.7423 22.8067 77.7812 27.8782 77.7812 34.7102H99.7812ZM100.495 37.4902C101.077 37.4902 101.562 37.574 101.924 37.6815C102.296 37.7918 102.461 37.9034 102.459 37.9019C102.453 37.8979 102.387 37.851 102.283 37.7434C102.179 37.6355 102.027 37.4552 101.867 37.189C101.527 36.6254 101.208 35.7627 101.208 34.7102H123.208C123.208 27.8782 119.247 22.8067 115.096 19.8937C110.912 16.9576 105.715 15.4902 100.495 15.4902V37.4902Z" fill="#38B000" mask="url(#path-4-inside-1_621_439)"/>
</g>
<g filter="url(#filter3_d_621_439)">
<path d="M100.611 35.1472L119.936 20.3573" stroke="black" stroke-width="2" stroke-linecap="round"/>
</g>
<g filter="url(#filter4_d_621_439)">
<path d="M100.528 35.0812L88.3288 24.7311" stroke="white" stroke-width="2" stroke-linecap="round"/>
</g>
<g filter="url(#filter5_d_621_439)">
<ellipse cx="100.501" cy="34.7102" rx="3.23516" ry="2.27029" fill="white"/>
</g>
<path d="M49.152 42.94C49.6353 42.94 50.0172 43.0753 50.2975 43.346C50.5778 43.607 50.718 43.955 50.718 44.39V47H35.87V45.55C35.87 45.2697 35.928 44.97 36.044 44.651C36.16 44.332 36.363 44.042 36.653 43.781L42.743 37.6475C43.265 37.1255 43.7193 36.6277 44.106 36.154C44.4927 35.6803 44.8117 35.2163 45.063 34.762C45.3143 34.298 45.5028 33.8388 45.6285 33.3845C45.7542 32.9205 45.817 32.4323 45.817 31.92C45.817 31.079 45.614 30.4362 45.208 29.9915C44.8117 29.5372 44.2027 29.31 43.381 29.31C42.714 29.31 42.1485 29.4888 41.6845 29.8465C41.2302 30.1945 40.916 30.6295 40.742 31.1515C40.539 31.6832 40.2732 32.036 39.9445 32.21C39.6158 32.384 39.147 32.4227 38.538 32.326L36.16 31.9055C36.3147 30.8518 36.6095 29.9335 37.0445 29.1505C37.4892 28.3675 38.0353 27.715 38.683 27.193C39.3403 26.671 40.0895 26.2843 40.9305 26.033C41.7715 25.772 42.6753 25.6415 43.642 25.6415C44.686 25.6415 45.6237 25.7962 46.455 26.1055C47.296 26.4052 48.0113 26.8257 48.601 27.367C49.1907 27.9083 49.6402 28.556 49.9495 29.31C50.2685 30.0543 50.428 30.876 50.428 31.775C50.428 32.5483 50.3168 33.2637 50.0945 33.921C49.8818 34.5783 49.587 35.2067 49.21 35.806C48.833 36.3957 48.3932 36.9708 47.8905 37.5315C47.3975 38.0825 46.8707 38.6432 46.31 39.2135L42.1775 43.4475C42.7092 43.2832 43.236 43.1575 43.758 43.0705C44.28 42.9835 44.7633 42.94 45.208 42.94H49.152ZM61.8998 38.793V33.283C61.8998 32.9447 61.9094 32.5822 61.9288 32.1955C61.9578 31.7992 61.9964 31.3883 62.0448 30.963L56.4623 38.793H61.8998ZM67.9898 38.793V41.316C67.9898 41.5383 67.9124 41.7317 67.7578 41.896C67.6128 42.0603 67.4001 42.1425 67.1198 42.1425H65.8148V47H61.8998V42.1425H53.4028C53.1224 42.1425 52.8663 42.0555 52.6343 41.8815C52.4119 41.7075 52.2718 41.49 52.2138 41.229L51.7498 39.0105L61.5228 25.8735H65.8148V38.793H67.9898Z" fill="white"/>
<path d="M143.994 25.8735V27.7585C143.994 28.3192 143.931 28.7735 143.805 29.1215C143.679 29.4598 143.559 29.745 143.443 29.977L136.106 45.521C135.903 45.927 135.613 46.275 135.236 46.565C134.868 46.855 134.375 47 133.757 47H130.48L138.02 31.8765C138.242 31.4705 138.464 31.1032 138.687 30.7745C138.919 30.4362 139.175 30.1172 139.455 29.8175H130.161C130.025 29.8175 129.895 29.7933 129.769 29.745C129.653 29.687 129.547 29.6145 129.45 29.5275C129.363 29.4308 129.291 29.3245 129.233 29.2085C129.175 29.0828 129.146 28.9572 129.146 28.8315V25.8735H143.994Z" fill="#38B000"/>
<defs>
<filter id="filter0_d_621_439" x="0" y="16" width="110.344" height="45.1855" filterUnits="userSpaceOnUse" color-interpolation-filters="sRGB">
<feFlood flood-opacity="0" result="BackgroundImageFix"/>
<feColorMatrix in="SourceAlpha" type="matrix" values="0 0 0 0 0 0 0 0 0 0 0 0 0 0 0 0 0 0 127 0" result="hardAlpha"/>
<feOffset dy="4"/>
<feGaussianBlur stdDeviation="2"/>
<feComposite in2="hardAlpha" operator="out"/>
<feColorMatrix type="matrix" values="0 0 0 0 0 0 0 0 0 0 0 0 0 0 0 0 0 0 0.25 0"/>
<feBlend mode="normal" in2="BackgroundImageFix" result="effect1_dropShadow_621_439"/>
<feBlend mode="normal" in="SourceGraphic" in2="effect1_dropShadow_621_439" result="shape"/>
</filter>
<filter id="filter1_d_621_439" x="88.625" y="16" width="85.375" height="45.3423" filterUnits="userSpaceOnUse" color-interpolation-filters="sRGB">
<feFlood flood-opacity="0" result="BackgroundImageFix"/>
<feColorMatrix in="SourceAlpha" type="matrix" values="0 0 0 0 0 0 0 0 0 0 0 0 0 0 0 0 0 0 127 0" result="hardAlpha"/>
<feOffset dy="4"/>
<feGaussianBlur stdDeviation="2"/>
<feComposite in2="hardAlpha" operator="out"/>
<feColorMatrix type="matrix" values="0 0 0 0 0 0 0 0 0 0 0 0 0 0 0 0 0 0 0.25 0"/>
<feBlend mode="normal" in2="BackgroundImageFix" result="effect1_dropShadow_621_439"/>
<feBlend mode="normal" in="SourceGraphic" in2="effect1_dropShadow_621_439" result="shape"/>
</filter>
<filter id="filter2_d_621_439" x="66.7812" y="8.49023" width="67.4297" height="60.4399" filterUnits="userSpaceOnUse" color-interpolation-filters="sRGB">
<feFlood flood-opacity="0" result="BackgroundImageFix"/>
<feColorMatrix in="SourceAlpha" type="matrix" values="0 0 0 0 0 0 0 0 0 0 0 0 0 0 0 0 0 0 127 0" result="hardAlpha"/>
<feOffset dy="4"/>
<feGaussianBlur stdDeviation="11"/>
<feComposite in2="hardAlpha" operator="out"/>
<feColorMatrix type="matrix" values="0 0 0 0 0 0 0 0 0 0 0 0 0 0 0 0 0 0 0.25 0"/>
<feBlend mode="normal" in2="BackgroundImageFix" result="effect1_dropShadow_621_439"/>
<feBlend mode="normal" in="SourceGraphic" in2="effect1_dropShadow_621_439" result="shape"/>
</filter>
<filter id="filter3_d_621_439" x="95.5312" y="19.4487" width="29.4922" height="24.6074" filterUnits="userSpaceOnUse" color-interpolation-filters="sRGB">
<feFlood flood-opacity="0" result="BackgroundImageFix"/>
<feColorMatrix in="SourceAlpha" type="matrix" values="0 0 0 0 0 0 0 0 0 0 0 0 0 0 0 0 0 0 127 0" result="hardAlpha"/>
<feOffset dy="4"/>
<feGaussianBlur stdDeviation="2"/>
<feComposite in2="hardAlpha" operator="out"/>
<feColorMatrix type="matrix" values="0 0 0 0 0 0 0 0 0 0 0 0 0 0 0 0 0 0 0.25 0"/>
<feBlend mode="normal" in2="BackgroundImageFix" result="effect1_dropShadow_621_439"/>
<feBlend mode="normal" in="SourceGraphic" in2="effect1_dropShadow_621_439" result="shape"/>
</filter>
<filter id="filter4_d_621_439" x="60.2031" y="0.872559" width="68.4453" height="66.0674" filterUnits="userSpaceOnUse" color-interpolation-filters="sRGB">
<feFlood flood-opacity="0" result="BackgroundImageFix"/>
<feColorMatrix in="SourceAlpha" type="matrix" values="0 0 0 0 0 0 0 0 0 0 0 0 0 0 0 0 0 0 127 0" result="hardAlpha"/>
<feOffset dy="4"/>
<feGaussianBlur stdDeviation="13.5"/>
<feComposite in2="hardAlpha" operator="out"/>
<feColorMatrix type="matrix" values="0 0 0 0 0 0 0 0 0 0 0 0 0 0 0 0 0 0 0.25 0"/>
<feBlend mode="normal" in2="BackgroundImageFix" result="effect1_dropShadow_621_439"/>
<feBlend mode="normal" in="SourceGraphic" in2="effect1_dropShadow_621_439" result="shape"/>
</filter>
<filter id="filter5_d_621_439" x="63.2656" y="2.43994" width="74.4688" height="72.5405" filterUnits="userSpaceOnUse" color-interpolation-filters="sRGB">
<feFlood flood-opacity="0" result="BackgroundImageFix"/>
<feColorMatrix in="SourceAlpha" type="matrix" values="0 0 0 0 0 0 0 0 0 0 0 0 0 0 0 0 0 0 127 0" result="hardAlpha"/>
<feOffset dy="4"/>
<feGaussianBlur stdDeviation="17"/>
<feComposite in2="hardAlpha" operator="out"/>
<feColorMatrix type="matrix" values="0 0 0 0 0 0 0 0 0 0 0 0 0 0 0 0 0 0 0.25 0"/>
<feBlend mode="normal" in2="BackgroundImageFix" result="effect1_dropShadow_621_439"/>
<feBlend mode="normal" in="SourceGraphic" in2="effect1_dropShadow_621_439" result="shape"/>
</filter>
</defs>
</svg>
